<svg width="24" height="24" viewBox="0 0 24 24" fill="none" xmlns="http://www.w3.org/2000/svg">
<path d="M12 0C18.636 0 24 5.3772 24 12C24 18.6252 18.636 24 12 24C5.376 24 0 18.6252 0 12C0 5.3772 5.376 0 12 0ZM12 15.5172C11.424 15.5172 10.956 15.9852 10.956 16.5612C10.956 17.1372 11.424 17.6172 12.012 17.6172C12.588 17.6172 13.056 17.1372 13.056 16.5612C13.056 15.9852 12.588 15.5172 12 15.5172ZM12 6.396C11.424 6.396 10.944 6.8772 10.944 7.452V12.756C10.944 13.3332 11.424 13.8 12 13.8C12.576 13.8 13.044 13.3332 13.044 12.756V7.452C13.044 6.8772 12.576 6.396 12 6.396Z" fill="white"/>
</svg>
