<svg width="21" height="21" viewBox="0 0 21 21" fill="none" xmlns="http://www.w3.org/2000/svg">
<path d="M20.9166 14.7601C20.9166 18.4372 18.551 20.9163 15.0208 20.9163L5.98954 20.9163C2.45829 20.9163 0.0832931 18.4372 0.0832933 14.7601L0.0832936 6.24967C0.0832938 2.56217 2.45829 0.083007 5.98954 0.0830072L15.0208 0.0830076C18.551 0.0830077 20.9166 2.56217 20.9166 6.24967L20.9166 14.7601ZM14.9583 10.7184C15.2604 10.4163 15.2604 9.91634 14.9583 9.61426L11.052 5.68717C10.7604 5.39551 10.2395 5.39551 9.94788 5.68717L6.04163 9.61426C5.73954 9.91634 5.73954 10.4163 6.04163 10.7184C6.35413 11.0205 6.84371 11.0205 7.15621 10.7184L9.71871 8.13509L9.71871 14.7497C9.71871 15.1872 10.0729 15.5309 10.5 15.5309C10.9375 15.5309 11.2812 15.1872 11.2812 14.7497L11.2812 8.13509L13.8541 10.7184C14 10.8643 14.2083 10.9476 14.4062 10.9476C14.6031 10.9476 14.802 10.8643 14.9583 10.7184Z" fill="#FFD35A"/>
</svg>
