<svg width="12" height="10" viewBox="0 0 12 10" fill="none" xmlns="http://www.w3.org/2000/svg">
<path d="M12 5.00007C12 5.28031 11.7948 5.51191 11.5286 5.54857L11.4545 5.55362L1.866 5.55333L5.33017 9.0542C5.54364 9.2699 5.54439 9.62039 5.33183 9.83703C5.1386 10.034 4.83561 10.0525 4.62174 9.89218L4.56045 9.83871L0.160446 5.39263L0.149662 5.38097C0.138489 5.36902 0.127836 5.35656 0.117741 5.34363L0.160446 5.39263C0.139247 5.37121 0.120147 5.34846 0.103146 5.32465C0.0928669 5.30968 0.0828934 5.29415 0.0736923 5.27811C0.052906 5.2424 0.0367985 5.20504 0.0249157 5.16662C0.0209131 5.15308 0.0171919 5.13924 0.0139961 5.12521C0.0113964 5.1145 0.00925922 5.10361 0.00744724 5.09267C0.00563526 5.08083 0.00405407 5.06897 0.00284958 5.057C0.00148392 5.04499 0.000645638 5.03271 0.000209808 5.02042C0.000119209 5.01361 0 5.00686 0 5.00007L0.000162125 4.9817C0.000613213 4.96806 0.00155735 4.95444 0.00299549 4.94087L0 5.00007C0 4.96846 0.00261116 4.93747 0.00762558 4.90731C0.00986576 4.89357 0.0127039 4.87977 0.0160646 4.86607C0.0187597 4.85519 0.0217228 4.8445 0.0249882 4.83395C0.0288429 4.82142 0.0332489 4.80879 0.0381203 4.7963C0.0431776 4.78342 0.0486479 4.77082 0.0545559 4.75848C0.0590334 4.74903 0.064044 4.73929 0.0693598 4.72968C0.0793867 4.71164 0.0900002 4.69472 0.10146 4.67846C0.103263 4.67591 0.105284 4.6731 0.107334 4.67031C0.125525 4.6456 0.144381 4.6238 0.164789 4.60362L4.56041 0.16132C4.77387 -0.0544048 5.11923 -0.0536792 5.3318 0.162941C5.52505 0.359869 5.54203 0.667429 5.38314 0.883799L5.3302 0.945772L1.86667 4.446L11.4545 4.44653C11.7558 4.44653 12 4.69436 12 5.00007Z" fill="#515151"/>
</svg>
