<svg width="24" height="24" viewBox="0 0 24 24" fill="none" xmlns="http://www.w3.org/2000/svg">
<path d="M16.7429 0.423585C20.6311 0.423586 23.2144 3.19874 23.2144 7.1818L23.2144 16.5126C23.2144 20.4915 20.6234 23.2708 16.7429 23.2708L6.8398 23.2708C2.95145 23.2708 0.367186 20.4954 0.367186 16.5126L0.367187 7.18179C0.367187 3.19895 2.95145 0.423584 6.83981 0.423585L16.7429 0.423585ZM16.7429 2.13713L6.83981 2.13713C3.92621 2.13713 2.08073 4.11908 2.08073 7.18179L2.08073 16.5126C2.08073 19.5753 3.92621 21.5573 6.8398 21.5573L16.7429 21.5573C19.6491 21.5573 21.5009 19.571 21.5009 16.5126L21.5009 7.1818C21.5009 4.11876 19.6562 2.13713 16.7429 2.13713ZM11.7908 6.32274C12.2245 6.32274 12.583 6.64506 12.6397 7.06325L12.6476 7.17951L12.6476 14.4381L15.4652 11.6108C15.7688 11.306 16.2447 11.2774 16.5806 11.5255L16.6769 11.6083C16.9817 11.9118 17.0104 12.3877 16.7622 12.7236L16.6795 12.8199L12.3979 17.1198C12.3698 17.1475 12.3412 17.1726 12.3111 17.1956L12.3979 17.1198C12.3559 17.162 12.3106 17.1989 12.2628 17.2305C12.2457 17.2413 12.2281 17.2521 12.21 17.2623C12.196 17.2706 12.1819 17.2779 12.1677 17.2849C12.1471 17.2947 12.1253 17.3043 12.103 17.313C12.0877 17.3193 12.0733 17.3245 12.0587 17.3292C12.0359 17.3365 12.0118 17.3433 11.9872 17.349C11.9736 17.3525 11.9603 17.3553 11.9469 17.3577C11.9237 17.3618 11.8996 17.3652 11.8753 17.3675C11.8581 17.3695 11.8413 17.3707 11.8245 17.3713C11.8134 17.3714 11.8021 17.3717 11.7908 17.3717L11.7583 17.3714C11.7407 17.3707 11.7231 17.3695 11.7056 17.3678L11.7908 17.3717C11.7373 17.3717 11.6849 17.3667 11.6341 17.3574C11.6213 17.3553 11.608 17.3525 11.5947 17.3494C11.5698 17.3433 11.5457 17.3365 11.5221 17.3287C11.5083 17.3245 11.4939 17.3193 11.4795 17.3137C11.4563 17.3043 11.4345 17.2947 11.4132 17.2842C11.3997 17.2779 11.3856 17.2706 11.3717 17.2628C11.3535 17.2521 11.3359 17.2413 11.3186 17.2299C11.3057 17.2218 11.2927 17.2127 11.2799 17.2031L11.2705 17.1956C11.2404 17.1726 11.2118 17.1475 11.185 17.1207L11.1837 17.1198L6.90211 12.8199C6.56823 12.4846 6.56939 11.9421 6.90469 11.6083C7.20951 11.3047 7.68555 11.2781 8.02043 11.5277L8.11635 11.6108L10.934 14.4404L10.934 7.17951C10.934 6.70633 11.3176 6.32274 11.7908 6.32274Z" fill="white"/>
</svg>
