<svg width="25" height="25" viewBox="0 0 25 25" fill="none" xmlns="http://www.w3.org/2000/svg">
<path d="M17.4417 0.416748C21.7072 0.416748 24.583 3.16087 24.583 7.25591V17.7322C24.583 21.8284 21.7072 24.5834 17.4417 24.5834H7.56965C3.29215 24.5834 0.416321 21.8284 0.416321 17.7322V7.25591C0.416321 3.16087 3.29215 0.416748 7.56965 0.416748H17.4417ZM12.7534 7.32841C12.403 6.978 11.823 6.978 11.4726 7.32841L6.91715 11.8597C6.57882 12.198 6.57882 12.8022 6.91715 13.1405L11.4726 17.6717C11.823 18.0222 12.403 18.0222 12.7534 17.6717C13.1038 17.3092 13.1038 16.7413 12.7534 16.3788L9.75674 13.4063H17.4297C17.9372 13.4063 18.3359 12.9955 18.3359 12.5001C18.3359 11.9926 17.9372 11.5938 17.4297 11.5938H9.75674L12.7534 8.60925C12.9226 8.44008 13.0192 8.19841 13.0192 7.96883C13.0192 7.74046 12.9226 7.50966 12.7534 7.32841Z" fill="#FFCC40"/>
</svg>
