<svg width="22" height="22" viewBox="0 0 22 22" fill="none" xmlns="http://www.w3.org/2000/svg">
<path d="M6.80749 17.3321C7.56774 17.3321 8.19058 17.9682 8.19058 18.754C8.19058 19.5305 7.56774 20.1666 6.80749 20.1666C6.03809 20.1666 5.41525 19.5305 5.41525 18.754C5.41525 17.9682 6.03809 17.3321 6.80749 17.3321ZM17.112 17.3321C17.8722 17.3321 18.4951 17.9682 18.4951 18.754C18.4951 19.5305 17.8722 20.1666 17.112 20.1666C16.3426 20.1666 15.7197 19.5305 15.7197 18.754C15.7197 17.9682 16.3426 17.3321 17.112 17.3321ZM2.54675 1.83336L2.64009 1.84126L4.82464 2.17709C5.13606 2.23416 5.36505 2.49515 5.39253 2.81321L5.56656 4.90866C5.59404 5.20894 5.83219 5.43345 6.12529 5.43345H18.4952C19.054 5.43345 19.4203 5.6299 19.7867 6.06022C20.1531 6.49053 20.2172 7.10794 20.1348 7.66828L19.2646 13.8049C19.0998 14.9846 18.1105 15.8536 16.9473 15.8536H6.95423C5.73601 15.8536 4.72846 14.9004 4.62771 13.6656L3.78503 3.46804L2.40194 3.22482C2.03556 3.15933 1.7791 2.7945 1.84321 2.42032C1.90733 2.03771 2.26455 1.7842 2.64009 1.84126L2.54675 1.83336ZM15.4818 8.89374H12.9446C12.5599 8.89374 12.2576 9.20245 12.2576 9.59535C12.2576 9.97889 12.5599 10.2969 12.9446 10.2969H15.4818C15.8665 10.2969 16.1687 9.97889 16.1687 9.59535C16.1687 9.20245 15.8665 8.89374 15.4818 8.89374Z" fill="#828282"/>
</svg>
