<svg width="14" height="14" viewBox="0 0 14 14" fill="none" xmlns="http://www.w3.org/2000/svg">
<g id="Call">
<g id="Iconly/Bold/Call">
<g id="Call_2">
<path id="Vector" d="M10.5967 8.3882C10.2048 8.30391 9.89487 8.48582 9.62041 8.6447C9.33933 8.80843 8.80485 9.242 8.49849 9.13103C6.92998 8.48522 5.45476 7.11235 4.81616 5.53754C4.70361 5.22465 5.13516 4.68678 5.29767 4.40238C5.45536 4.12707 5.63352 3.81418 5.55226 3.41941C5.47883 3.06468 4.52906 1.85613 4.19321 1.52565C3.97171 1.30735 3.7448 1.18728 3.51187 1.16788C2.63613 1.13028 1.65807 2.2988 1.48653 2.57835C1.05678 3.17443 1.05919 3.96759 1.49375 4.92933C2.54103 7.51256 6.50204 11.4111 9.09496 12.4977C9.57346 12.7215 10.011 12.8337 10.4041 12.8337C10.7887 12.8337 11.1311 12.7263 11.4255 12.5135C11.6476 12.3855 12.864 11.3589 12.8321 10.4596C12.8128 10.2304 12.693 10.0012 12.4776 9.77926C12.1495 9.44029 10.9488 8.46218 10.5967 8.3882Z" fill="#828282"/>
</g>
</g>
</g>
</svg>
