<svg width="21" height="22" viewBox="0 0 21 22" fill="#828282" xmlns="http://www.w3.org/2000/svg">
<g id="Category">
<g id="Iconly/Bold/Category">
<g id="Category_2">
<path id="Vector" d="M6.93 12.3471C8.16375 12.3471 9.1525 13.3931 9.1525 14.6947V17.8196C9.1525 19.1121 8.16375 20.1663 6.93 20.1663H3.9725C2.7475 20.1663 1.75 19.1121 1.75 17.8196V14.6947C1.75 13.3931 2.7475 12.3471 3.9725 12.3471H6.93ZM17.0276 12.3471C18.2526 12.3471 19.2501 13.3931 19.2501 14.6947V17.8196C19.2501 19.1121 18.2526 20.1663 17.0276 20.1663H14.0701C12.8363 20.1663 11.8476 19.1121 11.8476 17.8196V14.6947C11.8476 13.3931 12.8363 12.3471 14.0701 12.3471H17.0276ZM6.93 1.83325C8.16375 1.83325 9.1525 2.88742 9.1525 4.18084V7.30575C9.1525 8.60742 8.16375 9.65242 6.93 9.65242H3.9725C2.7475 9.65242 1.75 8.60742 1.75 7.30575V4.18084C1.75 2.88742 2.7475 1.83325 3.9725 1.83325H6.93ZM17.0276 1.83325C18.2526 1.83325 19.2501 2.88742 19.2501 4.18084V7.30575C19.2501 8.60742 18.2526 9.65242 17.0276 9.65242H14.0701C12.8363 9.65242 11.8476 8.60742 11.8476 7.30575V4.18084C11.8476 2.88742 12.8363 1.83325 14.0701 1.83325H17.0276Z"/>
</g>
</g>
</g>
</svg>
