<svg width="24" height="24" viewBox="0 0 24 24" fill="none" xmlns="http://www.w3.org/2000/svg">
<path d="M12.0201 2.00003C17.7001 2.00003 22.0001 6.65702 22.0001 11.985C22.0001 18.1643 16.9601 22 12.0001 22C10.3601 22 8.54006 21.5594 7.08006 20.6981C6.57006 20.3876 6.14006 20.1573 5.59006 20.3375L3.57006 20.9384C3.06006 21.0987 2.60006 20.6981 2.75006 20.1573L3.42006 17.9139C3.53006 17.6034 3.51006 17.2729 3.35006 17.0126C2.49006 15.4302 2.00006 13.6976 2.00006 12.0151C2.00006 6.74715 6.21006 2.00003 12.0201 2.00003ZM16.5901 10.7431C15.8801 10.7431 15.3101 11.314 15.3101 12.0251C15.3101 12.7261 15.8801 13.307 16.5901 13.307C17.3001 13.307 17.8701 12.7261 17.8701 12.0251C17.8701 11.314 17.3001 10.7431 16.5901 10.7431ZM11.9801 10.7431C11.2801 10.7331 10.7001 11.314 10.7001 12.0151C10.7001 12.7261 11.2701 13.297 11.9801 13.307C12.6901 13.307 13.2601 12.7261 13.2601 12.0251C13.2601 11.314 12.6901 10.7431 11.9801 10.7431ZM7.37006 10.7431C6.66006 10.7431 6.09006 11.314 6.09006 12.0251C6.09006 12.7261 6.67006 13.307 7.37006 13.307C8.08006 13.297 8.65006 12.7261 8.65006 12.0251C8.65006 11.314 8.08006 10.7431 7.37006 10.7431Z" fill="#828282"/>
</svg>
