<svg width="30" height="31" viewBox="0 0 30 31" fill="none" xmlns="http://www.w3.org/2000/svg">
<path d="M21.501 0.899414C26.6067 0.899414 30 4.48062 30 9.61988V21.6599C30 26.7994 26.6064 30.3804 21.4995 30.3804H8.4975C3.39205 30.3804 0 26.7995 0 21.6599V9.61988C0 4.48518 3.40114 0.899414 8.4975 0.899414H21.501ZM21.501 3.11049H8.4975C4.68051 3.11049 2.25 5.67293 2.25 9.61988V21.6599C2.25 25.6123 4.67214 28.1693 8.4975 28.1693H21.4995C25.3266 28.1693 27.75 25.6121 27.75 21.6599V9.61988C27.75 5.66791 25.3268 3.11049 21.501 3.11049ZM12.0702 11.2026L12.1963 11.3096L14.997 14.0627L17.797 11.3126C18.2363 10.8809 18.9487 10.8809 19.388 11.3126C19.7874 11.7051 19.8237 12.3193 19.4969 12.7521L19.388 12.8761L16.5885 15.6266L19.3903 18.3806C19.8296 18.8124 19.8295 19.5124 19.3902 19.9441C18.9907 20.3365 18.3657 20.3722 17.9253 20.051L17.7992 19.9439L14.9985 17.1891L12.2 19.9397C11.7607 20.3715 11.0483 20.3715 10.609 19.9397C10.2096 19.5472 10.1733 18.9331 10.5001 18.5003L10.609 18.3763L13.407 15.6252L10.6052 12.8729C10.1659 12.4411 10.166 11.7412 10.6053 11.3095C11.0048 10.917 11.6298 10.8814 12.0702 11.2026Z" fill="#BDBDBD"/>
</svg>
