<svg width="18" height="18" viewBox="0 0 18 18" fill="none" xmlns="http://www.w3.org/2000/svg">
<circle cx="9" cy="9" r="9" fill="#515151"/>
<path d="M9.35155 8.08356H8.22184C7.57823 8.08356 7.05465 7.55998 7.05465 6.91641C7.05465 6.2728 7.57827 5.74922 8.22184 5.74922H10.4812C10.7725 5.74922 11.0086 5.51311 11.0086 5.22187C11.0086 4.93064 10.7725 4.69453 10.4812 4.69453H9.31404V3.52734C9.31404 3.23611 9.07793 3 8.7867 3C8.49546 3 8.25935 3.23611 8.25935 3.52734V4.69453H8.22188C6.99672 4.69453 6 5.69128 6 6.91641C6 8.14153 6.99675 9.13825 8.22188 9.13825H9.35159C9.99516 9.13825 10.5187 9.66186 10.5187 10.3054C10.5187 10.949 9.99516 11.4726 9.35159 11.4726H7.0922C6.80096 11.4726 6.56486 11.7087 6.56486 12C6.56486 12.2912 6.80096 12.5273 7.0922 12.5273H8.25935V13.6945C8.25935 13.9858 8.49546 14.2219 8.7867 14.2219C9.07793 14.2219 9.31404 13.9858 9.31404 13.6945V12.5273H9.35155C10.5767 12.5273 11.5734 11.5306 11.5734 10.3054C11.5734 9.08031 10.5767 8.08356 9.35155 8.08356Z" fill="white"/>
</svg>
