<svg width="22" height="22" viewBox="0 0 22 22" fill="none" xmlns="http://www.w3.org/2000/svg">
<g clip-path="url(#clip0)">
<path d="M0 9.66624V15.3598C0 16.9994 1.32912 18.3285 2.96871 18.3285H19.0313C20.6709 18.3285 22 16.9994 22 15.3598V9.66624C22 9.38111 21.7688 9.14994 21.4837 9.14994H0.516297C0.231172 9.14994 0 9.38111 0 9.66624ZM5.49284 13.2803H4.11605C3.61704 13.2803 3.21253 12.8758 3.21253 12.3768C3.21253 11.8778 3.61704 11.4733 4.11605 11.4733H5.49284C5.99184 11.4733 6.39636 11.8778 6.39636 12.3768C6.39636 12.8758 5.99184 13.2803 5.49284 13.2803Z" fill="#828282"/>
<path d="M22 6.8266V6.64018C22 5.00059 20.6709 3.67147 19.0313 3.67147H2.96871C1.32912 3.67147 0 5.00059 0 6.64018V6.8266C0 7.11173 0.231172 7.3429 0.516297 7.3429H21.4837C21.7688 7.3429 22 7.11173 22 6.8266Z" fill="#828282"/>
</g>
<defs>
<clipPath id="clip0">
<rect width="22" height="22" fill="white"/>
</clipPath>
</defs>
</svg>
