<svg width="16" height="18" viewBox="0 0 16 18" fill="none" xmlns="http://www.w3.org/2000/svg">
<path d="M13.6339 6.3643C13.7983 6.3643 13.9475 6.43604 14.0654 6.55725C14.1753 6.6867 14.2306 6.84749 14.2145 7.01735C14.2145 7.07342 13.7751 12.6309 13.5241 14.9702C13.3669 16.4057 12.4415 17.2773 11.0533 17.3012C9.98597 17.3251 8.94266 17.3333 7.91539 17.3333C6.82477 17.3333 5.7582 17.3251 4.72291 17.3012C3.38128 17.269 2.45506 16.3818 2.3059 14.9702C2.04768 12.6227 1.61624 7.07342 1.60822 7.01735C1.6002 6.84749 1.65473 6.6867 1.7654 6.55725C1.87446 6.43604 2.03164 6.3643 2.19683 6.3643H13.6339ZM9.61476 0.842102C10.3437 0.842102 10.9949 1.35085 11.1833 2.07646L11.3181 2.67838C11.4271 3.16899 11.8521 3.51613 12.3413 3.51613H14.7455C15.0663 3.51613 15.3333 3.78246 15.3333 4.12135V4.43468C15.3333 4.76533 15.0663 5.0399 14.7455 5.0399H1.07983C0.758253 5.0399 0.491211 4.76533 0.491211 4.43468V4.12135C0.491211 3.78246 0.758253 3.51613 1.07983 3.51613H3.48401C3.97239 3.51613 4.39741 3.16899 4.50727 2.67921L4.63318 2.11686C4.82885 1.35085 5.4728 0.842102 6.20977 0.842102H9.61476Z" fill="#BDBDBD"/>
</svg>
