<svg width="24" height="24" viewBox="0 0 24 24" fill="none" xmlns="http://www.w3.org/2000/svg">
<path d="M9.86531 2.88602C11.0357 1.70702 12.9464 1.70702 14.1269 2.87702L14.8571 3.60602C15.1372 3.88602 15.5174 4.04702 15.9175 4.04702H16.9479C18.6085 4.04702 19.959 5.39602 19.959 7.05602V8.08702C19.959 8.48602 20.119 8.86602 20.3991 9.14602L21.1194 9.86602C21.6896 10.426 21.9997 11.186 21.9997 11.986C22.0097 12.786 21.6996 13.547 21.1394 14.116L20.3991 14.856C20.119 15.136 19.959 15.516 19.959 15.917V16.946C19.959 18.606 18.6085 19.957 16.9479 19.957H15.9175C15.5174 19.957 15.1372 20.116 14.8571 20.396L14.1369 21.116C13.5466 21.707 12.7764 21.996 12.0061 21.996C11.2358 21.996 10.4655 21.707 9.87531 21.127L9.14505 20.396C8.86494 20.116 8.48481 19.957 8.08466 19.957H7.05429C5.39369 19.957 4.0432 18.606 4.0432 16.946V15.917C4.0432 15.516 3.88314 15.136 3.60304 14.846L2.88278 14.136C1.71235 12.967 1.70235 11.056 2.87277 9.87702L3.60304 9.14602C3.88314 8.86602 4.0432 8.48602 4.0432 8.07602V7.05602C4.0432 5.39602 5.39369 4.04702 7.05429 4.04702H8.08466C8.48481 4.04702 8.86494 3.88602 9.14505 3.60602L9.86531 2.88602ZM14.577 13.696C14.0868 13.696 13.6967 14.087 13.6967 14.566C13.6967 15.056 14.0868 15.446 14.577 15.446C15.0572 15.446 15.4473 15.056 15.4473 14.566C15.4473 14.087 15.0572 13.696 14.577 13.696ZM15.1872 8.80602C14.8471 8.46702 14.2969 8.46702 13.9568 8.80602L8.81493 13.946C8.4748 14.286 8.4748 14.846 8.81493 15.186C8.97498 15.356 9.19506 15.446 9.42515 15.446C9.66523 15.446 9.88531 15.356 10.0454 15.186L15.1872 10.047C15.5274 9.70702 15.5274 9.14602 15.1872 8.80602ZM9.43515 8.55602C8.95498 8.55602 8.55483 8.94602 8.55483 9.42602C8.55483 9.91702 8.95498 10.306 9.43515 10.306C9.91533 10.306 10.3055 9.91702 10.3055 9.42602C10.3055 8.94602 9.91533 8.55602 9.43515 8.55602Z" fill="#828282"/>
</svg>
