<svg width="14" height="14" viewBox="0 0 14 14" fill="none" xmlns="http://www.w3.org/2000/svg">
<path d="M10.0338 0C12.4164 0 14 1.70065 14 4.1412V9.8588C14 12.2995 12.4163 14 10.0331 14H3.9655C1.58296 14 0 12.2995 0 9.8588V4.1412C0 1.70282 1.5872 0 3.9655 0H10.0338ZM10.0338 1.05H3.9655C2.18424 1.05 1.05 2.26686 1.05 4.1412V9.8588C1.05 11.7357 2.18033 12.95 3.9655 12.95H10.0331C11.8191 12.95 12.95 11.7356 12.95 9.8588V4.1412C12.95 2.26447 11.8192 1.05 10.0338 1.05ZM9.86288 4.96767C10.0493 5.15406 10.0662 5.44572 9.91371 5.65125L9.86288 5.71013L6.54068 9.03233C6.35432 9.21869 6.06271 9.23566 5.85718 9.08322L5.7983 9.03241L4.1365 7.37131C3.93143 7.16633 3.93136 6.83391 4.13634 6.62885C4.32269 6.44242 4.61435 6.42542 4.81991 6.57787L4.8788 6.62869C5.59133 7.34097 6.74631 7.34097 7.45883 6.62869L9.12042 4.96767C9.32544 4.76264 9.65786 4.76264 9.86288 4.96767Z" fill="#17A550"/>
</svg>
