<svg width="20" height="20" viewBox="0 0 20 20" fill="none" xmlns="http://www.w3.org/2000/svg">
<path d="M8.22098 2.40501C9.19633 1.42251 10.7886 1.42251 11.7723 2.39751L12.3808 3.00501C12.6142 3.23835 12.931 3.37251 13.2645 3.37251H14.1231C15.507 3.37251 16.6324 4.49668 16.6324 5.88001V6.73918C16.6324 7.07168 16.7657 7.38835 16.9992 7.62168L17.5994 8.22168C18.0745 8.68835 18.333 9.32168 18.333 9.98835C18.3413 10.655 18.0829 11.2892 17.616 11.7633L16.9992 12.38C16.7657 12.6133 16.6324 12.93 16.6324 13.2642V14.1217C16.6324 15.505 15.507 16.6308 14.1231 16.6308H13.2645C12.931 16.6308 12.6142 16.7633 12.3808 16.9967L11.7806 17.5967C11.2888 18.0892 10.6469 18.33 10.005 18.33C9.36306 18.33 8.72116 18.0892 8.22931 17.6058L7.62076 16.9967C7.38734 16.7633 7.07056 16.6308 6.73711 16.6308H5.87846C4.49463 16.6308 3.36922 15.505 3.36922 14.1217V13.2642C3.36922 12.93 3.23584 12.6133 3.00242 12.3717L2.4022 11.78C1.42685 10.8058 1.41851 9.21335 2.39386 8.23085L3.00242 7.62168C3.23584 7.38835 3.36922 7.07168 3.36922 6.73001V5.88001C3.36922 4.49668 4.49463 3.37251 5.87846 3.37251H6.73711C7.07056 3.37251 7.38734 3.23835 7.62076 3.00501L8.22098 2.40501ZM12.1474 11.4133C11.7389 11.4133 11.4138 11.7392 11.4138 12.1383C11.4138 12.5467 11.7389 12.8717 12.1474 12.8717C12.5475 12.8717 12.8727 12.5467 12.8727 12.1383C12.8727 11.7392 12.5475 11.4133 12.1474 11.4133ZM12.6559 7.33835C12.3725 7.05585 11.914 7.05585 11.6305 7.33835L7.34566 11.6217C7.06222 11.905 7.06222 12.3717 7.34566 12.655C7.47904 12.7967 7.66244 12.8717 7.85418 12.8717C8.05425 12.8717 8.23765 12.7967 8.37103 12.655L12.6559 8.37251C12.9394 8.08918 12.9394 7.62168 12.6559 7.33835ZM7.86251 7.13001C7.46237 7.13001 7.12891 7.45501 7.12891 7.85501C7.12891 8.26418 7.46237 8.58835 7.86251 8.58835C8.26266 8.58835 8.58778 8.26418 8.58778 7.85501C8.58778 7.45501 8.26266 7.13001 7.86251 7.13001Z" fill="#515151"/>
</svg>
