<svg width="21" height="17" viewBox="0 0 21 17" fill="none" xmlns="http://www.w3.org/2000/svg">
<path d="M10.5 0C12.6717 0 14.7307 0.753454 16.5234 2.14836C18.3161 3.53309 19.8424 5.55927 20.9385 8.09454C21.0205 8.288 21.0205 8.512 20.9385 8.69527C18.7463 13.7658 14.8434 16.8 10.5 16.8H10.4898C6.15659 16.8 2.25366 13.7658 0.0614634 8.69527C-0.0204878 8.512 -0.0204878 8.288 0.0614634 8.09454C2.25366 3.024 6.15659 0 10.4898 0H10.5ZM10.5 4.32727C8.2361 4.32727 6.40244 6.14982 6.40244 8.4C6.40244 10.64 8.2361 12.4625 10.5 12.4625C12.7537 12.4625 14.5873 10.64 14.5873 8.4C14.5873 6.14982 12.7537 4.32727 10.5 4.32727ZM10.5012 5.8523C11.9046 5.8523 13.052 6.99267 13.052 8.39776C13.052 9.79267 11.9046 10.933 10.5012 10.933C9.08757 10.933 7.94025 9.79267 7.94025 8.39776C7.94025 8.22467 7.96074 8.06176 7.99147 7.89885H8.04269C9.17977 7.89885 10.1017 7.00285 10.1427 5.88285C10.2554 5.86249 10.3783 5.8523 10.5012 5.8523Z" fill="#828282"/>
</svg>
