<svg width="22" height="21" viewBox="0 0 22 21" fill="none" xmlns="http://www.w3.org/2000/svg">
<path d="M3.02582 0.285828C1.86003 0.285828 0.924625 1.25084 0.924625 2.43146V4.00479C0.924625 4.57814 1.14784 5.12762 1.546 5.52906L8.42953 12.5083L8.42894 17.793C8.42894 18.0335 8.55048 18.2551 8.74749 18.3852L8.83641 18.4351L13.3561 20.5623C13.8268 20.7839 14.3681 20.4404 14.3681 19.9202L14.3684 12.4923L20.7092 5.50043C21.03 5.14739 21.2232 4.69619 21.2622 4.22026L21.2695 4.04077V2.43146C21.2695 1.25084 20.3341 0.285828 19.1683 0.285828H3.02582ZM3.02582 1.70518H19.1683C19.5401 1.70518 19.8501 2.02498 19.8501 2.43146V4.04077C19.8501 4.23066 19.781 4.4113 19.6583 4.54639L13.1326 11.7414C13.0142 11.872 12.9486 12.0419 12.9486 12.2182L12.9489 18.8008L9.84894 17.3427L9.84836 12.2182C9.84836 12.069 9.80137 11.9246 9.71554 11.8048L9.644 11.7199L2.55526 4.53104C2.42105 4.39572 2.34404 4.20614 2.34404 4.00479V2.43146C2.34404 2.02498 2.65403 1.70518 3.02582 1.70518Z" fill="white"/>
</svg>
