<svg width="73" height="72" viewBox="0 0 73 72" fill="none" xmlns="http://www.w3.org/2000/svg">
<g opacity="0.8">
<path d="M41.1938 47.5365C50.266 47.5365 57.6204 40.2828 57.6204 31.3349C57.6204 22.387 50.266 15.1333 41.1938 15.1333C32.1217 15.1333 24.7672 22.387 24.7672 31.3349C24.7672 40.2828 32.1217 47.5365 41.1938 47.5365Z" fill="#F9BA48"/>
<path d="M65.5648 4.71815C57.3281 4.71815 49.2756 3.18823 41.6301 0.17257L41.1936 0L40.7583 0.172323C33.1118 3.18823 25.0591 4.7179 16.8224 4.7179H14.2069V29.0204H8.34036C6.3997 29.0204 4.8205 30.578 4.8205 32.4921V52.1656C4.8205 54.0796 6.3997 55.6374 8.34036 55.6374H18.9002C18.9025 55.6374 18.9037 55.6374 18.906 55.6374C21.6774 59.9806 25.5177 63.568 30.0961 66.0297L41.1934 72L52.2906 66.0297C62.0925 60.7573 68.1798 50.6416 68.1798 39.6304V4.71815H65.5648ZM7.16691 52.1656V32.4921C7.16691 31.8544 7.69256 31.3349 8.34011 31.3349H18.9C19.5475 31.3349 20.0732 31.8546 20.0732 32.4921V52.1656C20.0732 52.8032 19.5475 53.3229 18.9 53.3229H8.34036C7.69256 53.3229 7.16691 52.8032 7.16691 52.1656ZM22.4203 34.7965C26.3382 34.5871 29.4603 31.3767 29.4603 27.4619V21.4984C29.4603 19.9038 30.7757 18.6052 32.3937 18.6052C34.0117 18.6052 35.3271 19.9036 35.3271 21.4984V28.7822C35.3271 30.8281 37.0144 32.4923 39.0887 32.4923H47.6904C49.9302 32.4923 51.7537 34.2896 51.7537 36.4999V49.3153C51.7537 51.5256 49.9304 53.3229 47.6904 53.3229H30.4025C29.4708 53.3229 28.6072 52.8657 28.0899 52.1021C27.1372 50.6927 25.5424 49.8513 23.8248 49.8513H22.4203V34.7965ZM65.8334 39.6301C65.8334 49.7933 60.2144 59.1311 51.168 63.9973L41.1936 69.3636L31.2192 63.9973C27.1372 61.8008 23.6876 58.638 21.151 54.8121C21.8631 54.2218 22.3315 53.3656 22.397 52.3934C24.7647 56.4218 28.1745 59.7223 32.3434 61.965L41.1939 66.7271L50.0443 61.965C58.3364 57.5049 63.4872 48.947 63.4872 39.6311V22.0769H61.1406V39.6314C61.1406 48.0989 56.459 55.8794 48.9214 59.9332L41.1939 64.0902L33.4663 59.9332C30.1599 58.1544 27.3825 55.6409 25.2951 52.5996C25.6225 52.802 25.9159 53.059 26.1377 53.3866C27.0904 54.7961 28.6851 55.6374 30.4027 55.6374H47.6907C51.2258 55.6374 54.1006 52.801 54.1006 49.3153V36.4999C54.1006 33.0142 51.226 30.1778 47.6907 30.1778H39.089C38.3088 30.1778 37.674 29.5517 37.674 28.7822V21.4984C37.674 18.6272 35.305 16.2907 32.3939 16.2907C29.4828 16.2907 27.1139 18.6272 27.1139 21.4984V27.4606C27.1139 30.0993 25.0383 32.2447 22.4158 32.4518C22.4041 31.4463 21.9522 30.5503 21.2471 29.9233V11.5286C28.0618 11.1156 34.7651 9.74194 41.1936 7.43878C47.6223 9.74169 54.3244 11.1153 61.1401 11.5286V12.8191H63.4867V9.32644L62.3674 9.27558C55.264 8.95513 48.2769 7.55704 41.6006 5.12106L41.1934 4.9717L40.7861 5.11983C34.1086 7.55581 27.1214 8.9539 20.0193 9.27435L18.9 9.32644V29.0207H16.5533V7.03266H16.8219C25.203 7.03266 33.3987 5.50496 41.1931 2.49153C48.9875 5.50496 57.1832 7.03266 65.5643 7.03266H65.8329V39.6301H65.8334Z" fill="#333333"/>
<path d="M63.4866 17.4478H61.14V19.7623H63.4866V17.4478Z" fill="#333333"/>
<path d="M17.7269 48.6938H9.51367V51.0084H17.7269V48.6938Z" fill="#333333"/>
</g>
</svg>
