<svg width="73" height="72" viewBox="0 0 73 72" fill="none" xmlns="http://www.w3.org/2000/svg">
<g opacity="0.8">
<path d="M68.1216 9.35894H56.6385C54.5117 3.94612 49.1893 0.0925293 42.9592 0.0925293C40.8757 0.0925293 38.897 0.529162 37.1002 1.30408C35.2858 0.523479 33.294 0.0925293 31.2153 0.0925293C25.0945 0.0925293 19.7052 3.78526 17.5303 9.35894H16.4417H4.87844L0 71.9072H21.3199H23.5817H73L68.1216 9.35894ZM42.9592 2.40913C47.8657 2.40913 52.0995 5.2575 54.083 9.35894H44.9004C43.8551 6.6786 42.0713 4.43267 39.813 2.82501C40.8194 2.56308 41.8704 2.40913 42.9592 2.40913ZM42.3484 9.35894H31.8351C32.9613 7.03196 34.8017 5.10331 37.0916 3.87668C39.3597 5.08725 41.2127 6.98797 42.3484 9.35894ZM31.2153 2.40913C32.3144 2.40913 33.3845 2.55739 34.4084 2.82624C32.1125 4.45713 30.3169 6.71937 29.2799 9.35919H23.5817H20.082C22.0996 5.14729 26.3862 2.40913 31.2153 2.40913ZM16.6223 11.6755L20.9934 67.7153L13.0124 59.8446V11.6755H16.6223ZM11.8378 61.962L19.5724 69.5906H4.10328L11.8378 61.962ZM7.05335 11.6755H10.6633V59.8446L2.68324 67.7153L7.05335 11.6755ZM23.4948 69.5906L18.9781 11.6755H23.5817H28.5752C28.3815 12.6113 28.2793 13.5797 28.2793 14.5714V15.3636C26.9159 15.8432 25.9305 17.1173 25.9305 18.6253C25.9305 20.5411 27.5111 22.1004 29.4538 22.1004C31.3965 22.1004 32.9771 20.5414 32.9771 18.6253C32.9771 17.1173 31.9917 15.8432 30.6283 15.3636V14.5714C30.6283 13.5718 30.7646 12.6056 30.9958 11.6755H54.9216C55.1541 12.6056 55.2903 13.5716 55.2903 14.5714V15.3636C53.9269 15.8432 52.9416 17.1173 52.9416 18.6253C52.9416 20.5411 54.5222 22.1004 56.4649 22.1004C58.4075 22.1004 59.9882 20.5414 59.9882 18.6253C59.9882 17.1173 59.0028 15.8432 57.6394 15.3636V14.5714C57.6394 13.5797 57.5372 12.6116 57.3435 11.6755H65.9472L70.4638 69.5906H23.5817H23.4948ZM30.6281 18.6253C30.6281 19.2636 30.1007 19.7838 29.4535 19.7838C28.8064 19.7838 28.279 19.2636 28.279 18.6253C28.279 17.9871 28.8064 17.4669 29.4535 17.4669C30.1007 17.4669 30.6281 17.9871 30.6281 18.6253ZM57.6391 18.6253C57.6391 19.2636 57.1117 19.7838 56.4646 19.7838C55.8175 19.7838 55.2901 19.2636 55.2901 18.6253C55.2901 17.9871 55.8175 17.4669 56.4646 17.4669C57.1117 17.4669 57.6391 17.9871 57.6391 18.6253Z" fill="#333333"/>
<path d="M62.3365 45.2661H28.2791L27.1049 31.3665H61.162L62.3365 45.2661Z" fill="#F9BA48"/>
</g>
</svg>
