<svg width="22" height="22" viewBox="0 0 22 22" fill="#828282" xmlns="http://www.w3.org/2000/svg">
<g id="Home">
<g id="Iconly/Bold/Home">
<g id="Home_2">
<path id="Vector" d="M8.37351 19.0421V16.2392C8.37351 15.5237 8.95778 14.9437 9.67852 14.9437H12.3132C12.6593 14.9437 12.9912 15.0802 13.236 15.3232C13.4807 15.5661 13.6182 15.8956 13.6182 16.2392V19.0421C13.616 19.3396 13.7335 19.6256 13.9446 19.8367C14.1557 20.0479 14.443 20.1666 14.7427 20.1666H16.5401C17.3796 20.1687 18.1855 19.8392 18.7799 19.2507C19.3742 18.6621 19.7083 17.863 19.7083 17.0296V9.04454C19.7083 8.37134 19.4077 7.73277 18.8875 7.30086L12.7728 2.4528C11.7091 1.60277 10.1851 1.63021 9.15323 2.51798L3.17805 7.30086C2.6333 7.72004 2.30772 8.3605 2.29163 9.04454V17.0214C2.29163 18.7585 3.71006 20.1666 5.45978 20.1666H7.21623C7.83858 20.1666 8.34437 19.6681 8.34888 19.0503L8.37351 19.0421Z"/>
</g>
</g>
</g>
</svg>
