<svg width="17" height="16" viewBox="0 0 17 16" fill="none" xmlns="http://www.w3.org/2000/svg">
<path d="M16.3214 14.7849C16.6637 14.7849 16.9412 15.0569 16.9412 15.3924C16.9412 15.7 16.708 15.9542 16.4055 15.9945L16.3214 16H9.85505C9.51275 16 9.23525 15.728 9.23525 15.3924C9.23525 15.0849 9.46842 14.8307 9.77095 14.7904L9.85505 14.7849H16.3214ZM10.0322 0.862699C11.2057 -0.287566 13.1089 -0.287566 14.2824 0.862699L15.5006 2.05684C16.674 3.20711 16.674 5.0728 15.5006 6.22306L6.3441 15.1987C5.82052 15.7119 5.11065 15.9999 4.36971 15.9999H0.619803C0.271449 15.9999 -0.00848492 15.7186 0.000196611 15.3772L0.0945238 11.6682C0.113278 10.9672 0.405901 10.2988 0.911687 9.80305L10.0322 0.862699ZM9.32329 3.27435L1.78821 10.6623C1.50707 10.9379 1.34413 11.31 1.33372 11.6993L1.25501 14.7844L4.36971 14.7848C4.73621 14.7848 5.08866 14.6583 5.36685 14.4299L5.46757 14.3395L13.04 6.91671L9.32329 3.27435ZM13.4059 1.72191C12.7165 1.04618 11.5981 1.04618 10.9087 1.72191L10.2005 2.41506L13.9162 6.05741L14.6241 5.36385C15.2751 4.72565 15.3113 3.71231 14.7326 3.03243L14.6241 2.91606L13.4059 1.72191Z" fill="white"/>
</svg>
