<svg width="24" height="25.2" viewBox="0 0 24 26" fill="none" xmlns="http://www.w3.org/2000/svg">
<path d="M11.9934 2.09998C16.6561 2.09998 20.5 6.00376 20.5 10.8336C20.5 13.2675 19.657 15.527 18.2695 17.4421C16.7388 19.5547 14.8522 21.3953 12.7285 22.84C12.2425 23.1739 11.8039 23.1991 11.2705 22.84C9.13474 21.3953 7.24809 19.5547 5.7305 17.4421C4.34198 15.527 3.5 13.2675 3.5 10.8336C3.5 6.00376 7.34388 2.09998 11.9934 2.09998ZM11.9934 8.16565C10.4517 8.16565 9.19423 9.50016 9.19423 11.1056C9.19423 12.7236 10.4517 13.9961 11.9934 13.9961C13.5362 13.9961 14.8058 12.7236 14.8058 11.1056C14.8058 9.50016 13.5362 8.16565 11.9934 8.16565Z" fill="#828282"/>
</svg>
