<svg width="17" height="18" viewBox="0 0 17 18" fill="none" xmlns="http://www.w3.org/2000/svg">
<path d="M8.4952 1.49536C11.7979 1.49536 14.5207 4.27517 14.5207 7.71443C14.5207 9.44751 13.9236 11.0565 12.9407 12.4202C11.8565 13.9245 10.5201 15.2352 9.01589 16.264C8.67162 16.5017 8.36092 16.5197 7.98307 16.264C6.47028 15.2352 5.1339 13.9245 4.05894 12.4202C3.07541 11.0565 2.479 9.44751 2.479 7.71443C2.479 4.27517 5.20175 1.49536 8.4952 1.49536ZM8.4952 5.81461C7.4031 5.81461 6.51242 6.76489 6.51242 7.90807C6.51242 9.06022 7.4031 9.96639 8.4952 9.96639C9.58801 9.96639 10.4873 9.06022 10.4873 7.90807C10.4873 6.76489 9.58801 5.81461 8.4952 5.81461Z" fill="#FFCC40"/>
</svg>
