<svg width="24" height="24" viewBox="0 0 24 24" fill="none" xmlns="http://www.w3.org/2000/svg">
<path d="M10.9927 2C13.4753 2 15.5 3.99 15.5 6.44V11.23H9.39535C8.95785 11.23 8.61192 11.57 8.61192 12C8.61192 12.42 8.95785 12.77 9.39535 12.77H15.5V17.55C15.5 20 13.4753 22 10.9724 22H6.01744C3.52471 22 1.5 20.01 1.5 17.56V6.45C1.5 3.99 3.53488 2 6.02762 2H10.9927ZM18.0402 8.5502C18.3402 8.2402 18.8302 8.2402 19.1302 8.5402L22.0502 11.4502C22.2002 11.6002 22.2802 11.7902 22.2802 12.0002C22.2802 12.2002 22.2002 12.4002 22.0502 12.5402L19.1302 15.4502C18.9802 15.6002 18.7802 15.6802 18.5902 15.6802C18.3902 15.6802 18.1902 15.6002 18.0402 15.4502C17.7402 15.1502 17.7402 14.6602 18.0402 14.3602L19.6402 12.7702H15.5002V11.2302H19.6402L18.0402 9.6402C17.7402 9.3402 17.7402 8.8502 18.0402 8.5502Z" fill="#828282"/>
</svg>
