<svg width="20" height="18" viewBox="0 0 20 18" fill="none" xmlns="http://www.w3.org/2000/svg">
<path opacity="0.4" d="M20 12.7804C20 15.5359 17.76 17.7679 14.97 17.7778H14.96H5.05C2.27 17.7778 0 15.5556 0 12.8002V12.7903C0 12.7903 0.00600006 8.41907 0.0140001 6.22063C0.0150001 5.8078 0.495 5.5767 0.822 5.83348C3.198 7.69515 7.447 11.0896 7.5 11.134C8.21 11.696 9.11 12.013 10.03 12.013C10.95 12.013 11.85 11.696 12.56 11.1232C12.613 11.0886 16.767 7.79588 19.179 5.9036C19.507 5.64583 19.989 5.87694 19.99 6.28878C20 8.47043 20 12.7804 20 12.7804Z" fill="black"/>
<path d="M19.4761 2.6409C18.6101 1.0291 16.9061 0 15.0301 0H5.05007C3.17407 0 1.47007 1.0291 0.604067 2.6409C0.410067 3.00138 0.502067 3.45075 0.825067 3.70556L8.25007 9.57104C8.77007 9.98584 9.40007 10.1923 10.0301 10.1923C10.0341 10.1923 10.0371 10.1923 10.0401 10.1923C10.0431 10.1923 10.0471 10.1923 10.0501 10.1923C10.6801 10.1923 11.3101 9.98584 11.8301 9.57104L19.2551 3.70556C19.5781 3.45075 19.6701 3.00138 19.4761 2.6409Z" fill="#828282"/>
</svg>
