<svg width="23" height="18" viewBox="0 0 23 18" fill="none" xmlns="http://www.w3.org/2000/svg">
<path d="M11.4 0L11.7262 0.00542124C16.2066 0.152399 20.2306 3.26353 22.5638 8.30884L22.7226 8.66142C22.8185 8.87444 22.8197 9.11699 22.726 9.33094C20.3685 14.7115 16.1151 18 11.3954 18L11.0692 17.9946C6.58268 17.8474 2.56036 14.7298 0.232785 9.69389L0.0694289 9.33094C-0.023143 9.11965 -0.023143 8.88035 0.0694289 8.66906C2.42687 3.28847 6.68028 0 11.4 0ZM11.408 1.6756C7.62675 1.67655 4.11591 4.24479 1.9679 8.62446L1.78944 8.99899L1.98223 9.40466C4.01926 13.5387 7.27483 16.0561 10.8057 16.3029L11.1093 16.3185L11.4023 16.3224L11.6928 16.3181C15.4518 16.1834 18.9187 13.5005 20.9942 9.02602L21.0048 8.99899C18.9801 4.61872 15.6287 1.95169 11.9846 1.69701L11.6803 1.68138L11.408 1.6756ZM11.3971 4.62765C13.8596 4.62765 15.8559 6.5849 15.8559 9.00022C15.8559 11.4146 13.8594 13.3717 11.3971 13.3717C8.93499 13.3717 6.93949 11.4148 6.93949 9.00022C6.93949 6.58477 8.93477 4.62765 11.3971 4.62765ZM11.3971 6.30425C9.87907 6.30425 8.64915 7.51065 8.64915 9.00022C8.64915 10.4888 9.8792 11.6951 11.3971 11.6951C12.9154 11.6951 14.1463 10.4885 14.1463 9.00022C14.1463 7.51095 12.9155 6.30425 11.3971 6.30425Z" fill="#515151"/>
</svg>
