<svg  viewBox="0 0 19 22" fill="none" xmlns="http://www.w3.org/2000/svg">
<path d="M13.9238 0C17.1844 0 19 1.87889 19 5.09833V16.0022C19 19.2744 17.1844 21.1111 13.9238 21.1111H5.07722C1.86833 21.1111 0 19.2744 0 16.0022V5.09833C0 1.87889 1.86833 0 5.07722 0H13.9238ZM5.36222 14.5033C5.04556 14.4717 4.73944 14.6194 4.57056 14.8939C4.40167 15.1578 4.40167 15.5061 4.57056 15.7806C4.73944 16.0444 5.04556 16.2028 5.36222 16.1606H13.6378C14.0589 16.1183 14.3767 15.7584 14.3767 15.3372C14.3767 14.9044 14.0589 14.5456 13.6378 14.5033H5.36222ZM13.6378 9.68894H5.36222C4.90728 9.68894 4.53889 10.0594 4.53889 10.5133C4.53889 10.9672 4.90728 11.3367 5.36222 11.3367H13.6378C14.0917 11.3367 14.4611 10.9672 14.4611 10.5133C14.4611 10.0594 14.0917 9.68894 13.6378 9.68894ZM8.51728 4.90833H5.36222V4.91889C4.90728 4.91889 4.53889 5.28833 4.53889 5.74222C4.53889 6.19611 4.90728 6.56556 5.36222 6.56556H8.51728C8.97222 6.56556 9.34167 6.19611 9.34167 5.73061C9.34167 5.27778 8.97222 4.90833 8.51728 4.90833Z" fill="#828282"/>
</svg>
