<svg width="16" height="16" viewBox="0 0 16 16" fill="none" xmlns="http://www.w3.org/2000/svg">
<path d="M11.1068 1.3335C13.3735 1.3335 14.6668 2.6135 14.6668 4.88683V11.1135C14.6668 13.3735 13.3802 14.6668 11.1135 14.6668H4.88683C2.6135 14.6668 1.3335 13.3735 1.3335 11.1135V4.88683C1.3335 2.6135 2.6135 1.3335 4.88683 1.3335H11.1068ZM7.9935 5.00683C7.68683 5.00683 7.44016 5.2535 7.44016 5.56016V7.44016H5.5535C5.40683 7.44016 5.26683 7.50016 5.16016 7.60016C5.06016 7.70683 5.00016 7.84616 5.00016 7.9935C5.00016 8.30016 5.24683 8.54683 5.5535 8.5535H7.44016V10.4402C7.44016 10.7468 7.68683 10.9935 7.9935 10.9935C8.30016 10.9935 8.54683 10.7468 8.54683 10.4402V8.5535H10.4402C10.7468 8.54683 10.9935 8.30016 10.9935 7.9935C10.9935 7.68683 10.7468 7.44016 10.4402 7.44016H8.54683V5.56016C8.54683 5.2535 8.30016 5.00683 7.9935 5.00683Z" fill="#FFCC40"/>
</svg>
