<svg width="46" height="46" viewBox="0 0 46 46" fill="none" xmlns="http://www.w3.org/2000/svg">
<path d="M27.2233 9.33117C33.4683 9.77949 40.9101 16.0075 40.9101 26.7905C40.9101 38.79 31.4765 45.0117 23.5163 45.0117C15.7358 45.0117 5.08936 38.3768 5.08936 26.7905C5.08936 15.3264 12.0702 9.77949 19.2883 9.21977C19.288 9.21274 19.2868 9.20579 19.2847 9.1991C18.141 6.82902 17.2281 0.988281 17.2281 0.988281C17.2281 0.988281 19.485 2.69441 20.5703 5.11391L21.9656 0.988281C22.6537 2.60733 23.1232 4.31074 23.3618 6.05367C23.5262 7.32676 25.2054 1.26141 25.2054 1.26141C25.2054 1.26141 26.3078 3.21102 26.1011 5.38164L28.7713 2.02238C28.7713 2.02238 28.5305 7.08777 27.2385 9.24043C27.2288 9.26972 27.2237 9.30032 27.2233 9.33117Z" fill="#F43B3B"/>
<path d="M30.5942 37.589C22.8137 37.589 12.1672 30.954 12.1672 19.3678C12.1672 15.9532 12.7867 13.0638 13.8473 10.6746C8.92389 13.0493 5.08936 18.2946 5.08936 26.7906C5.08936 38.3769 15.7358 45.0119 23.5163 45.0119C29.3006 45.0119 35.8617 41.7256 39.0171 35.3254C36.34 36.8271 33.3772 37.589 30.5942 37.589Z" fill="#D61D1D"/>
<path d="M28.0275 8.87473C29.0892 6.43898 29.301 2.24166 29.3103 2.04778C29.3157 1.93387 29.2849 1.82118 29.2222 1.72591C29.1595 1.63064 29.0683 1.55769 28.9615 1.51756C28.8548 1.47743 28.7381 1.47218 28.6281 1.50258C28.5182 1.53297 28.4208 1.59743 28.3498 1.6867L26.6026 3.88508C26.4639 2.8755 26.15 1.89789 25.6749 0.996337C25.6224 0.903659 25.5435 0.828635 25.4483 0.780738C25.3532 0.732841 25.2459 0.71422 25.1402 0.727227C25.0345 0.740233 24.9349 0.784285 24.8542 0.853817C24.7735 0.923349 24.7152 1.01524 24.6866 1.1179C24.3619 2.29099 23.9684 3.58788 23.6467 4.52899C23.3751 3.23829 22.9765 1.97761 22.4568 0.765349C22.4121 0.666918 22.3388 0.584211 22.2465 0.527968C22.1541 0.471725 22.047 0.444547 21.939 0.449962C21.8311 0.455378 21.7272 0.493137 21.6409 0.558336C21.5547 0.623535 21.4901 0.71316 21.4554 0.815572L20.4572 3.76703C19.6717 2.54536 18.6905 1.46129 17.5529 0.558259C17.4672 0.493493 17.3641 0.455796 17.2569 0.450003C17.1496 0.444211 17.0431 0.470587 16.9509 0.525749C16.8588 0.58091 16.7852 0.662343 16.7396 0.759603C16.6941 0.856862 16.6786 0.965515 16.6952 1.07163C16.7298 1.29291 17.488 6.09389 18.5101 8.75605C14.8429 9.20913 11.5185 10.8953 9.08473 13.5519C6.11818 16.7898 4.55059 21.3677 4.55059 26.7907C4.53463 29.5562 5.16534 32.2872 6.39239 34.7656C7.52634 37.0225 9.10586 39.0262 11.0356 40.6558C14.6205 43.7209 19.2864 45.5508 23.5167 45.5508C27.8573 45.5508 32.2474 43.8191 35.5614 40.7995C38.2477 38.3523 41.4491 33.9355 41.4491 26.7907C41.4491 20.3736 38.9268 16.1987 36.8109 13.8262C34.3732 11.0937 31.2094 9.31874 28.0275 8.87473ZM34.8353 40.0026C31.7175 42.8434 27.592 44.4727 23.5167 44.4727C19.5357 44.4727 15.1316 42.7394 11.7358 39.8363C9.91636 38.3008 8.42695 36.4125 7.3574 34.2855C6.20494 31.9561 5.61296 29.3895 5.62871 26.7907C5.62871 21.6419 7.09874 17.3158 9.87976 14.2801C12.2902 11.6491 15.6463 10.0427 19.3299 9.757C19.4702 9.74613 19.6006 9.68085 19.6934 9.57509C19.7862 9.46933 19.834 9.33148 19.8265 9.19098C19.8233 9.11291 19.8044 9.03628 19.7709 8.96566V8.96503C19.0306 7.4313 18.3774 4.31858 18.0287 2.44237C18.7109 3.14172 19.5491 4.15408 20.0789 5.33534C20.1232 5.43422 20.1963 5.51745 20.2887 5.57417C20.381 5.63089 20.4883 5.65847 20.5965 5.65331C20.7047 5.64815 20.8089 5.61049 20.8954 5.54524C20.9819 5.48 21.0468 5.39019 21.0815 5.28754L21.996 2.58325C22.3848 3.73414 22.6632 4.91944 22.8274 6.12309C22.9006 6.68776 23.2889 6.75882 23.4062 6.767C23.9183 6.80294 24.1872 6.43368 24.9812 3.9177C25.0898 3.57404 25.195 3.22877 25.2906 2.90902C25.5342 3.69168 25.6273 4.51343 25.5649 5.33076C25.5539 5.44644 25.5806 5.56256 25.641 5.66183C25.7014 5.7611 25.7922 5.8382 25.9 5.88163C26.0078 5.92506 26.1267 5.93251 26.2391 5.90286C26.3514 5.87321 26.4512 5.80805 26.5235 5.71709L28.0828 3.75553C27.901 5.37927 27.5216 7.72132 26.776 8.96332C26.7155 9.06891 26.6841 9.18863 26.6849 9.3103C26.6794 9.4502 26.7284 9.58678 26.8218 9.69114C26.9151 9.79551 27.0454 9.85947 27.185 9.86948C30.343 10.096 33.5583 11.8 36.0063 14.5444C37.9974 16.7768 40.3709 20.7134 40.3709 26.7909C40.3709 33.5418 37.3606 37.7017 34.8353 40.0026Z" fill="#151515"/>
<path d="M9.60046 30.5398C9.32974 29.3085 9.19418 28.0514 9.19616 26.7907C9.18644 25.0689 9.3664 23.3514 9.7328 21.669C9.74848 21.5999 9.75037 21.5284 9.73837 21.4585C9.72636 21.3887 9.7007 21.3219 9.66285 21.2619C9.625 21.202 9.5757 21.1501 9.51777 21.1093C9.45985 21.0684 9.39443 21.0394 9.32528 21.0239C9.25612 21.0083 9.18458 21.0066 9.11474 21.0187C9.04491 21.0309 8.97816 21.0566 8.9183 21.0946C8.85845 21.1326 8.80668 21.182 8.76594 21.24C8.7252 21.298 8.69631 21.3635 8.6809 21.4327C8.29707 23.1926 8.1083 24.9894 8.11803 26.7907C8.11591 28.1299 8.25994 29.4654 8.54758 30.7734C8.58002 30.9114 8.66556 31.0311 8.78565 31.1065C8.90574 31.182 9.05071 31.207 9.18915 31.1763C9.32759 31.1456 9.44834 31.0615 9.52525 30.9424C9.60215 30.8232 9.62901 30.6786 9.60001 30.5398H9.60046Z" fill="#151515"/>
<path d="M10.2749 32.9718C10.2144 32.8423 10.1048 32.7422 9.97042 32.6934C9.83601 32.6447 9.68775 32.6513 9.55825 32.7119C9.42874 32.7725 9.3286 32.882 9.27986 33.0164C9.23111 33.1508 9.23776 33.2991 9.29833 33.4286C9.63559 34.1483 10.0205 34.8446 10.4506 35.513C10.4889 35.5725 10.5385 35.6239 10.5967 35.6643C10.6549 35.7046 10.7204 35.7331 10.7896 35.7481C10.8588 35.7632 10.9302 35.7644 10.9999 35.7518C11.0696 35.7392 11.1361 35.713 11.1956 35.6747C11.2551 35.6364 11.3066 35.5868 11.3469 35.5286C11.3873 35.4704 11.4158 35.4049 11.4308 35.3357C11.4458 35.2665 11.4471 35.1951 11.4345 35.1254C11.4219 35.0557 11.3957 34.9892 11.3574 34.9297C10.9533 34.3019 10.5917 33.6478 10.2749 32.9718Z" fill="#151515"/>
</svg>
