<svg width="21" height="21" viewBox="0 0 21 21" fill="none" xmlns="http://www.w3.org/2000/svg">
<path d="M12.4282 4.25988C15.2792 4.46455 18.6765 7.30775 18.6765 12.2304C18.6765 17.7085 14.3698 20.5488 10.7359 20.5488C7.1839 20.5488 2.32355 17.5198 2.32355 12.2304C2.32355 6.99686 5.51046 4.46455 8.80566 4.20902C8.80555 4.20582 8.805 4.20264 8.80402 4.19959C8.28189 3.1176 7.86517 0.451172 7.86517 0.451172C7.86517 0.451172 8.89548 1.23006 9.39095 2.33461L10.0279 0.451172C10.342 1.1903 10.5564 1.96795 10.6653 2.76363C10.7404 3.34482 11.5069 0.575859 11.5069 0.575859C11.5069 0.575859 12.0102 1.4659 11.9159 2.45684L13.1349 0.923262C13.1349 0.923262 13.0249 3.23572 12.4351 4.21846C12.4307 4.23183 12.4284 4.2458 12.4282 4.25988Z" fill="#F43B3B"/>
<path d="M13.9671 17.1601C10.4151 17.1601 5.55476 14.1311 5.55476 8.84168C5.55476 7.28284 5.83756 5.96378 6.32175 4.87305C4.07409 5.95717 2.32355 8.35175 2.32355 12.2304C2.32355 17.5198 7.1839 20.5488 10.7359 20.5488C13.3765 20.5488 16.3718 19.0485 17.8123 16.1267C16.5901 16.8122 15.2376 17.1601 13.9671 17.1601Z" fill="#D61D1D"/>
<path d="M12.7952 4.05151C13.28 2.93953 13.3766 1.02337 13.3809 0.934855C13.3833 0.882855 13.3693 0.831409 13.3406 0.787915C13.312 0.744421 13.2704 0.71112 13.2216 0.6928C13.1729 0.67448 13.1196 0.672084 13.0695 0.685959C13.0193 0.699833 12.9748 0.729262 12.9424 0.770014L12.1447 1.77363C12.0814 1.31273 11.9381 0.866427 11.7212 0.45485C11.6973 0.41254 11.6613 0.37829 11.6178 0.356424C11.5744 0.334558 11.5254 0.326057 11.4771 0.331995C11.4289 0.337933 11.3834 0.358043 11.3466 0.389786C11.3097 0.421529 11.2831 0.463481 11.2701 0.510344C11.1218 1.04588 10.9422 1.63795 10.7953 2.06758C10.6713 1.47835 10.4894 0.902822 10.2521 0.349398C10.2317 0.304463 10.1982 0.266705 10.1561 0.241029C10.1139 0.215353 10.065 0.202945 10.0157 0.205418C9.96643 0.20789 9.91902 0.225128 9.87965 0.254892C9.84028 0.284657 9.81076 0.325573 9.79495 0.372326L9.33926 1.71973C8.98064 1.16201 8.53268 0.667109 8.01335 0.254857C7.97424 0.22529 7.92718 0.208081 7.87822 0.205436C7.82926 0.202792 7.78063 0.214833 7.73856 0.240016C7.69649 0.265198 7.6629 0.302374 7.6421 0.346775C7.6213 0.391176 7.61423 0.440779 7.62181 0.489221C7.63761 0.590242 7.98374 2.78199 8.45033 3.99733C6.7762 4.20417 5.25854 4.97395 4.14746 6.18674C2.79317 7.6649 2.07753 9.75482 2.07753 12.2305C2.07024 13.493 2.35817 14.7398 2.91835 15.8713C3.43602 16.9016 4.15711 17.8163 5.03808 18.5603C6.67464 19.9595 8.80475 20.7949 10.736 20.7949C12.7176 20.7949 14.7217 20.0044 16.2346 18.6259C17.461 17.5087 18.9225 15.4923 18.9225 12.2305C18.9225 9.30098 17.771 7.39506 16.805 6.31196C15.6922 5.06451 14.2478 4.25421 12.7952 4.05151ZM15.9032 18.2621C14.4798 19.5589 12.5964 20.3028 10.736 20.3028C8.91856 20.3028 6.90798 19.5115 5.35771 18.1861C4.52712 17.4851 3.84717 16.6231 3.3589 15.6521C2.83277 14.5887 2.56252 13.417 2.56972 12.2305C2.56972 9.87999 3.24081 7.90505 4.51041 6.51917C5.61082 5.31807 7.14296 4.58471 8.8246 4.45428C8.88864 4.44932 8.9482 4.41952 8.99056 4.37124C9.03293 4.32296 9.05474 4.26003 9.05133 4.19588C9.04985 4.16024 9.04122 4.12526 9.02594 4.09302V4.09273C8.68797 3.39255 8.38975 1.97153 8.23057 1.115C8.542 1.43426 8.92468 1.89643 9.16654 2.4357C9.18678 2.48084 9.22015 2.51884 9.2623 2.54473C9.30445 2.57062 9.35342 2.58322 9.40283 2.58086C9.45224 2.5785 9.4998 2.56131 9.53929 2.53152C9.57879 2.50174 9.60839 2.46074 9.62424 2.41388L10.0417 1.17931C10.2192 1.70472 10.3463 2.24583 10.4213 2.79532C10.4547 3.05311 10.632 3.08555 10.6855 3.08928C10.9193 3.10569 11.0421 2.93712 11.4046 1.78851C11.4541 1.63163 11.5021 1.47401 11.5458 1.32803C11.657 1.68533 11.6995 2.06048 11.671 2.43361C11.666 2.48642 11.6782 2.53943 11.7058 2.58475C11.7333 2.63007 11.7748 2.66526 11.824 2.68509C11.8732 2.70492 11.9275 2.70832 11.9788 2.69478C12.0301 2.68125 12.0756 2.6515 12.1086 2.60997L12.8205 1.71448C12.7375 2.45576 12.5643 3.52495 12.2239 4.09195C12.1963 4.14016 12.182 4.19481 12.1823 4.25035C12.1798 4.31422 12.2022 4.37657 12.2448 4.42422C12.2874 4.47186 12.3469 4.50106 12.4106 4.50563C13.8523 4.60904 15.3202 5.38694 16.4378 6.63984C17.3467 7.65896 18.4303 9.45614 18.4303 12.2306C18.4303 15.3126 17.056 17.2117 15.9032 18.2621Z" fill="#151515"/>
<path d="M4.38304 13.9423C4.25945 13.3801 4.19756 12.8062 4.19847 12.2307C4.19403 11.4447 4.27619 10.6606 4.44345 9.89257C4.45061 9.86101 4.45148 9.82835 4.446 9.79646C4.44052 9.76457 4.4288 9.73407 4.41152 9.70672C4.39424 9.67936 4.37173 9.65567 4.34529 9.63702C4.31885 9.61838 4.28898 9.60512 4.25741 9.59803C4.22584 9.59093 4.19318 9.59014 4.1613 9.59568C4.12942 9.60122 4.09894 9.613 4.07162 9.63033C4.0443 9.64767 4.02066 9.67022 4.00206 9.6967C3.98347 9.72318 3.97027 9.75307 3.96324 9.78466C3.78801 10.5881 3.70184 11.4084 3.70628 12.2307C3.70531 12.8421 3.77106 13.4518 3.90237 14.0489C3.91719 14.1119 3.95623 14.1666 4.01106 14.201C4.06588 14.2354 4.13207 14.2469 4.19527 14.2328C4.25847 14.2188 4.31359 14.1804 4.3487 14.126C4.38381 14.0717 4.39607 14.0056 4.38283 13.9423H4.38304Z" fill="#151515"/>
<path d="M4.69064 15.0525C4.66298 14.9934 4.61298 14.9476 4.55162 14.9254C4.49026 14.9031 4.42258 14.9062 4.36345 14.9338C4.30433 14.9615 4.25862 15.0115 4.23636 15.0728C4.21411 15.1342 4.21714 15.2019 4.2448 15.261C4.39876 15.5895 4.5745 15.9074 4.77082 16.2126C4.78831 16.2398 4.81097 16.2632 4.83753 16.2816C4.86408 16.3001 4.894 16.3131 4.92559 16.3199C4.95717 16.3268 4.9898 16.3274 5.0216 16.3216C5.0534 16.3159 5.08376 16.3039 5.11094 16.2864C5.13813 16.2689 5.1616 16.2463 5.18002 16.2197C5.19844 16.1932 5.21145 16.1632 5.21831 16.1317C5.22517 16.1001 5.22574 16.0674 5.21999 16.0356C5.21424 16.0038 5.20228 15.9735 5.18479 15.9463C5.00034 15.6597 4.83525 15.3611 4.69064 15.0525Z" fill="#151515"/>
</svg>
