<svg width="15" height="18" viewBox="0 0 15 18" fill="none" xmlns="http://www.w3.org/2000/svg">
<path d="M7.48655 0C10.1943 0 12.373 2.13069 12.373 4.76118V6.11413C13.8927 6.58849 15 7.96424 15 9.60741V13.9635C15 15.9977 13.3135 17.6471 11.2343 17.6471H3.76659C1.68649 17.6471 0 15.9977 0 13.9635V9.60741C0 7.96424 1.10819 6.58849 2.62702 6.11413V4.76118C2.63598 2.13069 4.8147 0 7.48655 0ZM7.49552 10.045C7.06515 10.045 6.71548 10.3869 6.71548 10.8078V12.7544C6.71548 13.184 7.06515 13.526 7.49552 13.526C7.93485 13.526 8.28452 13.184 8.28452 12.7544V10.8078C8.28452 10.3869 7.93485 10.045 7.49552 10.045ZM7.50448 1.53445C5.6844 1.53445 4.20502 2.97245 4.19605 4.74364V5.92386H10.8039V4.76118C10.8039 2.98122 9.32457 1.53445 7.50448 1.53445Z" fill="#828282"/>
</svg>
