<svg width="20" height="20" viewBox="0 0 20 20" fill="none" xmlns="http://www.w3.org/2000/svg">
<path d="M9.67612 1.66675C14.0997 1.66675 17.6857 5.17358 17.6857 9.49947C17.6857 11.541 16.8871 13.4 15.5787 14.7942L18.1519 17.3031C18.3931 17.5384 18.3936 17.9203 18.1531 18.1562C17.9344 18.3706 17.5917 18.3905 17.35 18.2156L17.2807 18.1573L14.6771 15.6182C13.3066 16.6908 11.568 17.3322 9.67612 17.3322C5.25253 17.3322 1.6665 13.8254 1.6665 9.49947C1.6665 5.17358 5.25253 1.66675 9.67612 1.66675ZM9.67612 2.8732C5.93388 2.8732 2.9002 5.83988 2.9002 9.49947C2.9002 13.1591 5.93388 16.1257 9.67612 16.1257C13.4184 16.1257 16.452 13.1591 16.452 9.49947C16.452 5.83988 13.4184 2.8732 9.67612 2.8732Z" fill="#BDBDBD"/>
</svg>
