<svg width="32" height="32" viewBox="0 0 32 32" fill="none" xmlns="http://www.w3.org/2000/svg">
<path d="M16.9562 2.66675C17.9646 2.66675 18.8775 3.22675 19.3817 4.05341C19.6269 4.45341 19.7904 4.94675 19.7496 5.46675C19.7223 5.86675 19.845 6.26675 20.063 6.64008C20.7579 7.77342 22.2976 8.20008 23.4967 7.56008C24.8457 6.78675 26.549 7.25341 27.3257 8.57341L28.2386 10.1467C29.0289 11.4667 28.5929 13.1601 27.2303 13.9201C26.0721 14.6001 25.6633 16.1067 26.3582 17.2534C26.5762 17.6134 26.8215 17.9201 27.203 18.1067C27.68 18.3601 28.0479 18.7601 28.3068 19.1601C28.8109 19.9867 28.77 21.0001 28.2795 21.8934L27.3257 23.4934C26.8215 24.3467 25.8813 24.8801 24.9139 24.8801C24.4369 24.8801 23.9055 24.7467 23.4695 24.4801C23.1152 24.2534 22.7064 24.1734 22.2704 24.1734C20.9214 24.1734 19.7904 25.2801 19.7496 26.6001C19.7496 28.1334 18.496 29.3334 16.929 29.3334H15.0758C13.4952 29.3334 12.2416 28.1334 12.2416 26.6001C12.2143 25.2801 11.0834 24.1734 9.73439 24.1734C9.28473 24.1734 8.87594 24.2534 8.53529 24.4801C8.09926 24.7467 7.55421 24.8801 7.09092 24.8801C6.10985 24.8801 5.16964 24.3467 4.66548 23.4934L3.72528 21.8934C3.22111 21.0267 3.19386 19.9867 3.69803 19.1601C3.91604 18.7601 4.32483 18.3601 4.78811 18.1067C5.16964 17.9201 5.41491 17.6134 5.64656 17.2534C6.32786 16.1067 5.91908 14.6001 4.76086 13.9201C3.41188 13.1601 2.97584 11.4667 3.75253 10.1467L4.66548 8.57341C5.45579 7.25341 7.14543 6.78675 8.50804 7.56008C9.69351 8.20008 11.2333 7.77342 11.9282 6.64008C12.1462 6.26675 12.2688 5.86675 12.2416 5.46675C12.2143 4.94675 12.3642 4.45341 12.6231 4.05341C13.1273 3.22675 14.0402 2.69341 15.0349 2.66675H16.9562ZM16.016 12.2401C13.8767 12.2401 12.1462 13.9201 12.1462 16.0134C12.1462 18.1067 13.8767 19.7734 16.016 19.7734C18.1553 19.7734 19.845 18.1067 19.845 16.0134C19.845 13.9201 18.1553 12.2401 16.016 12.2401Z" fill="#828282"/>
</svg>
