<svg width="26" height="25" viewBox="0 0 26 25" fill="none" xmlns="http://www.w3.org/2000/svg">
<path d="M13.0004 0C13.7454 0.00390013 14.424 0.425114 14.7555 1.09204L17.6949 6.99424C17.7079 7.00724 17.7209 7.02024 17.7326 7.02024L24.3134 7.96927C24.8282 8.04208 25.295 8.31248 25.6135 8.7233C26.1998 9.50852 26.1101 10.6045 25.4055 11.2844L20.6343 15.8995C20.6343 15.8995 20.6252 15.9086 20.6252 15.9125C20.6252 15.9164 20.6252 15.9125 20.6343 15.9255L21.7783 22.4388C21.9344 23.4983 21.2115 24.4889 20.1533 24.6618C20.0519 24.6761 19.9479 24.6852 19.8452 24.6852C19.5228 24.6865 19.2043 24.6072 18.9195 24.4538L13.042 21.3857C13.0238 21.3844 13.0056 21.3896 12.99 21.3987L7.07224 24.4928C6.79923 24.6306 6.49502 24.7021 6.18821 24.7009C5.46019 24.7021 4.79066 24.3017 4.44745 23.6608C4.24334 23.2838 4.16924 22.8496 4.23814 22.4258L5.39648 15.9385C5.39648 15.9242 5.39258 15.9099 5.38218 15.8995L0.57202 11.2714C0.206707 10.9152 0.00130004 10.4264 0 9.91544C0 9.37722 0.215807 8.8611 0.59932 8.48539C0.902231 8.21238 1.27664 8.03297 1.67836 7.96537L8.24358 7.01634C8.26958 7.01634 8.29688 7.00464 8.29688 6.97734L11.2324 1.09204C11.4638 0.625321 11.8707 0.271709 12.3634 0.104004C12.5688 0.0338011 12.7846 0 13.0004 0ZM13.0004 1.89806H12.9757L12.9627 1.90717C12.951 1.91367 12.9432 1.92407 12.9367 1.93577L9.99734 7.82497C9.71393 8.40349 9.16661 8.8052 8.52959 8.904L1.99037 9.84134L1.91107 9.86734C1.90066 9.88424 1.89806 9.90114 1.89936 9.92064L6.70953 14.5358C7.16714 14.9856 7.37515 15.6317 7.26855 16.2649L6.12451 22.7391V22.7651C6.13101 22.7911 6.15441 22.8093 6.18171 22.8093H6.20251L12.0904 19.7217C12.379 19.5683 12.7014 19.4864 13.0277 19.4864C13.345 19.4851 13.657 19.5631 13.9378 19.7087L19.788 22.7638H19.7997C19.8114 22.7703 19.8244 22.7755 19.8374 22.7768C19.8426 22.7794 19.8478 22.7794 19.853 22.7768H19.8803L19.9063 22.7521L18.7609 16.2766C18.6348 15.6382 18.8467 14.9804 19.3213 14.5358L24.0924 9.90894L24.1054 9.88034L24.0924 9.86864H24.0742C24.0638 9.86344 24.0521 9.86084 24.0404 9.86084L17.4596 8.904C16.8226 8.8065 16.274 8.40349 15.9918 7.82497L13.0537 1.95007C13.055 1.93837 13.0511 1.92797 13.0433 1.92017C13.0342 1.91237 13.0238 1.90977 13.0121 1.90977L13.0004 1.89806Z" fill="#FFCC40"/>
</svg>
