<svg width="80" height="80" viewBox="0 0 80 80" fill="none" xmlns="http://www.w3.org/2000/svg">
<g opacity="0.8">
<path d="M41.3076 52.5425H38.6926V79.9997H41.3076V52.5425Z" fill="#F9BA48"/>
<path d="M34.7699 52.5425H32.1548V73.4622H34.7699V52.5425Z" fill="#F9BA48"/>
<path d="M28.2327 64.3103H25.6177V66.9253H28.2327V64.3103Z" fill="#F9BA48"/>
<path d="M28.2327 52.5425H25.6177V61.6948H28.2327V52.5425Z" fill="#F9BA48"/>
<path d="M47.8445 70.8474H45.2294V73.4624H47.8445V70.8474Z" fill="#F9BA48"/>
<path d="M47.8445 52.5425H45.2294V68.2324H47.8445V52.5425Z" fill="#F9BA48"/>
<path d="M54.3821 52.5425H51.7671V66.9249H54.3821V52.5425Z" fill="#F9BA48"/>
<path d="M39.9992 31.6228C45.0539 31.6228 49.1515 27.5251 49.1515 22.4704C49.1515 17.4158 45.0539 13.3181 39.9992 13.3181C34.9445 13.3181 30.8468 17.4158 30.8468 22.4704C30.8468 27.5251 34.9445 31.6228 39.9992 31.6228Z" fill="#F9BA48"/>
<path d="M55.6891 31.815V23.2341C55.6891 14.9381 51.5117 7.32724 44.5126 2.87258L39.9992 0L35.4858 2.8712C28.4869 7.32724 24.3093 14.9381 24.3093 23.2341V31.815C17.526 33.125 12.5419 39.0571 12.5419 46.0785V61.6951H15.157C15.157 57.3686 18.6753 53.8503 23.0018 53.8503H56.9963C61.3228 53.8503 64.8411 57.3686 64.8411 61.6951H67.4562V46.0785C67.4564 39.0574 62.4724 33.1253 55.6891 31.815ZM36.8899 5.07822L39.9992 3.1013L43.1084 5.07959C49.3478 9.05046 53.074 15.8376 53.074 23.2341V39.4679H26.9243V23.2341C26.9243 15.8376 30.6505 9.05046 36.8899 5.07822ZM23.0018 51.2352C19.8807 51.2352 17.0748 52.6095 15.157 54.7838V46.0785C15.157 40.4942 19.0023 35.7546 24.3093 34.4943V51.2352H23.0018ZM26.9243 51.2352V42.0829H53.074V51.2352H26.9243ZM64.8414 54.7838C62.9232 52.6095 60.1174 51.2352 56.9966 51.2352H55.6891V34.4929C60.9963 35.7546 64.8414 40.4942 64.8414 46.0771V54.7838Z" fill="#333333"/>
<path d="M6.00484 10.7029H3.39008V13.3179H0.775055V15.9329H3.39008V18.5477H6.00484V15.9329H8.61986V13.3179H6.00484V10.7029Z" fill="#333333"/>
<path d="M12.5422 13.318H15.1573V9.39545H19.0798V6.78042H15.1573V2.85815H12.5422V6.78042H8.6197V9.39545H12.5422V13.318Z" fill="#333333"/>
<path d="M17.772 25.0856V22.4705H20.3867V19.8555H17.772V17.2405H15.157V19.8555H12.5419V22.4705H15.157V25.0856H17.772Z" fill="#333333"/>
<path d="M63.5345 17.2406H66.1495V14.6258H68.7646V12.0108H66.1495V9.39575H63.5345V12.0108H60.9195V14.6258H63.5345V17.2406Z" fill="#333333"/>
<path d="M79.2242 21.163H75.3016V17.2405H72.6869V21.163H68.7643V23.778H72.6869V27.7006H75.3016V23.778H79.2242V21.163Z" fill="#333333"/>
<path d="M60.9189 29.0079H63.5339V26.3929H66.1489V23.7779H63.5339V21.1628H60.9189V23.7779H58.3041V26.3929H60.9189V29.0079Z" fill="#333333"/>
</g>
</svg>
