<svg width="72" height="72" viewBox="0 0 72 72" fill="none" xmlns="http://www.w3.org/2000/svg">
<g opacity="0.8" clip-path="url(#clip0)">
<path d="M36.0001 40.6453C21.9125 40.6453 10.4518 52.1059 10.4518 66.1936V72.0002H61.5485V66.1936C61.5485 52.1059 50.0878 40.6453 36.0001 40.6453ZM46.2822 45.3995C42.9773 52.5461 38.145 62.8884 36.064 67.111L25.7239 45.3961C28.8269 43.8563 32.3072 42.9679 36.0001 42.9679C39.6953 42.9676 43.178 43.8573 46.2822 45.3995ZM48.0183 47.181L50.9321 59.8064L38.8524 66.7091C40.4327 63.5027 43.1548 57.6998 48.0183 47.181ZM33.3581 66.8299L21.068 59.8076L23.9886 47.1542L33.3581 66.8299ZM12.7744 66.1936C12.7744 58.9297 16.1306 52.4405 21.3679 48.1787L18.4171 60.9667L33.6602 69.6775H12.7744V66.1936ZM59.2259 69.6773H38.3401L53.5842 60.9665L50.6321 48.1784C55.8695 52.4403 59.2256 58.9297 59.2256 66.1934V69.6773H59.2259Z" fill="#333333"/>
<path d="M50.4816 33.6774H53.4197C55.3404 33.6774 56.9036 32.1142 56.9036 30.1935V26.7096H54.581V30.1935C54.581 30.8334 54.0608 31.3548 53.4197 31.3548H52.0667C53.6553 28.6176 54.581 25.4507 54.581 22.0646C54.581 11.8196 46.2453 3.48413 36.0006 3.48413C25.7558 3.48413 17.4201 11.8199 17.4201 22.0646C17.4201 32.3093 25.7558 40.6451 36.0006 40.6451C41.852 40.6453 47.0732 37.9196 50.4816 33.6774ZM19.7422 22.0646C19.7422 13.0994 27.0352 5.80651 36.0003 5.80651C44.9655 5.80651 52.2584 13.0994 52.2584 22.0646C52.2584 25.5183 51.1681 28.7188 49.3239 31.3548H41.5932C41.1126 30.0065 39.8349 29.0322 38.3229 29.0322H33.6777C31.757 29.0322 30.1938 30.5954 30.1938 32.5161C30.1938 34.4369 31.757 36.0001 33.6777 36.0001H38.3229C39.8349 36.0001 41.1123 35.0258 41.5932 33.6774H47.3578C44.4243 36.5458 40.418 38.3227 36.0015 38.3227C27.0352 38.3227 19.7422 31.0297 19.7422 22.0646ZM39.4842 32.5161C39.4842 33.156 38.9641 33.6774 38.3229 33.6774H33.6777C33.0366 33.6774 32.5164 33.156 32.5164 32.5161C32.5164 31.8762 33.0366 31.3548 33.6777 31.3548H38.3229C38.9638 31.3548 39.4842 31.8765 39.4842 32.5161Z" fill="#333333"/>
<path d="M36.0003 2.32262C44.3928 2.32262 51.8855 7.6424 54.6459 15.5601L56.8395 14.7961C53.7528 5.9458 45.3788 0 36.0003 0C26.623 0 18.249 5.9458 15.162 14.7949L17.3557 15.5601C20.1163 7.6424 27.6089 2.32262 36.0003 2.32262Z" fill="#333333"/>
<path d="M17.4198 30.1939H16.2585C11.7771 30.1939 8.12953 26.5463 8.12953 22.065C8.12953 17.5836 11.7771 13.936 16.2585 13.936H17.4198V30.1939Z" fill="#F9BA48"/>
<path d="M55.742 30.1936H54.5807V13.9355H55.742C60.2234 13.9355 63.8709 17.5831 63.8709 22.0645C63.8709 26.5458 60.2236 30.1936 55.742 30.1936Z" fill="#F9BA48"/>
</g>
<defs>
<clipPath id="clip0">
<rect width="72" height="72" fill="white"/>
</clipPath>
</defs>
</svg>
