<svg width="30" height="30" viewBox="0 0 30 30" fill="none" xmlns="http://www.w3.org/2000/svg">
<path d="M21.501 0C26.6067 0 30 3.64426 30 8.874V21.126C30 26.356 26.6064 30 21.4995 30H8.4975C3.39206 30 0 26.356 0 21.126V8.874C0 3.64889 3.40114 0 8.4975 0H21.501ZM21.501 2.25H8.4975C4.68051 2.25 2.25 4.85756 2.25 8.874V21.126C2.25 25.148 4.67214 27.75 8.4975 27.75H21.4995C25.3266 27.75 27.75 25.1477 27.75 21.126V8.874C27.75 4.85245 25.3268 2.25 21.501 2.25ZM12.0702 10.4845L12.1963 10.5935L14.997 13.395L17.797 10.5966C18.2363 10.1572 18.9487 10.1572 19.388 10.5966C19.7874 10.996 19.8237 11.621 19.4969 12.0614L19.388 12.1875L16.5885 14.9865L19.3903 17.789C19.8296 18.2284 19.8296 18.9407 19.3902 19.38C18.9907 19.7793 18.3657 19.8156 17.9253 19.4888L17.7992 19.3798L14.9985 16.5765L12.2 19.3755C11.7607 19.8149 11.0483 19.8149 10.609 19.3755C10.2096 18.9761 10.1733 18.3511 10.5001 17.9107L10.609 17.7846L13.407 14.985L10.6052 12.1843C10.1659 11.7449 10.166 11.0326 10.6053 10.5933C11.0048 10.194 11.6298 10.1577 12.0702 10.4845Z" fill="#828282"/>
</svg>
