<svg width="39" height="39" viewBox="0 0 39 39" fill="none" xmlns="http://www.w3.org/2000/svg">
<path d="M26.8349 4.875C32.435 4.875 35.7442 8.09026 35.7442 13.549V13.6096H28.8629C25.6606 13.6152 23.0663 16.1446 23.0606 19.2669C23.0562 22.3963 25.6533 24.9369 28.8629 24.9412H35.75V25.4383C35.75 30.8971 32.4408 34.125 26.8407 34.125H12.1608C6.55922 34.125 3.25 30.8971 3.25 25.4383V13.549C3.25 8.09026 6.55922 4.875 12.1608 4.875H26.8349ZM20.1226 11.1717H10.9518C10.27 11.1745 9.71678 11.7139 9.71388 12.3801C9.711 13.0491 10.2657 13.5941 10.9518 13.5969H20.1341C20.8202 13.5941 21.3749 13.0491 21.372 12.3787C21.3691 11.7097 20.8087 11.1689 20.1226 11.1717Z" fill="#37EC7F"/>
<path opacity="0.4" d="M26.0608 19.982C26.4006 21.5277 27.7558 22.6151 29.303 22.5869H34.5841C35.2278 22.5869 35.75 22.0537 35.75 21.3947V17.2809C35.7486 16.6234 35.2278 16.0888 34.5841 16.0874H29.1786C27.4187 16.0931 25.9972 17.5539 26 19.3541C26 19.5648 26.0207 19.7755 26.0608 19.982Z" fill="#37EC7F"/>
<path d="M29.25 20.9624C30.1475 20.9624 30.875 20.2349 30.875 19.3374C30.875 18.4399 30.1475 17.7124 29.25 17.7124C28.3525 17.7124 27.625 18.4399 27.625 19.3374C27.625 20.2349 28.3525 20.9624 29.25 20.9624Z" fill="#37EC7F"/>
</svg>
