<svg width="26" height="31" viewBox="0 0 26 31" fill="none" xmlns="http://www.w3.org/2000/svg">
<path d="M12.0599 0.155525C12.6692 -0.0519249 13.3334 -0.0519249 13.9416 0.156024L24.0996 3.62435C25.2384 4.01174 26 5.05539 26 6.22773V16.3856C26 19.4758 24.8508 22.4523 22.7797 24.771C21.8026 25.8664 20.5576 26.7792 19.0515 27.5705L13.5595 30.4531C13.2163 30.6332 12.8028 30.6333 12.4595 30.4533L6.95777 27.5691C5.44765 26.7765 4.20275 25.8655 3.22572 24.7704C1.1515 22.4501 0 19.4717 0 16.3796V6.22773C0 5.05539 0.761594 4.01174 1.89913 3.62478L12.0599 0.155525ZM13.1729 2.27808C13.0618 2.24007 12.9387 2.24007 12.8266 2.27825L2.6655 5.74761C2.45546 5.81906 2.31536 6.01104 2.31536 6.22773V16.3796C2.31536 18.9282 3.26447 21.3832 4.9745 23.296C5.75127 24.1667 6.77728 24.9175 8.05768 25.5895L13.0077 28.1844L17.9506 25.5915C19.0675 25.0046 19.9928 24.3552 20.7274 23.6183L21.0306 23.2971C22.7375 21.3861 23.6846 18.9328 23.6846 16.3856V6.22773C23.6846 6.01104 23.5445 5.81906 23.3332 5.74718L13.1729 2.27808ZM18.7434 11.0728C19.1544 11.4721 19.1918 12.097 18.8555 12.5374L18.7434 12.6635L12.7265 18.5096C12.3154 18.909 11.6721 18.9452 11.2189 18.6183L11.0891 18.5093L8.16865 15.6703C7.71667 15.2309 7.71686 14.5187 8.16908 14.0796C8.5802 13.6804 9.22336 13.6442 9.67648 13.9711L9.80629 14.08L11.9071 16.1234L17.1062 11.0728C17.5583 10.6335 18.2913 10.6335 18.7434 11.0728Z" fill="#FFCC40"/>
</svg>
