<svg width="52" height="52" viewBox="0 0 52 52" fill="none" xmlns="http://www.w3.org/2000/svg">
<rect x="1" y="1" width="50" height="50" rx="25" stroke="#47A7FF" stroke-width="2"/>
<path d="M27 19.5C27 18.9477 26.5523 18.5 26 18.5C25.4477 18.5 25 18.9477 25 19.5L27 19.5ZM25 32.5C25 33.0523 25.4477 33.5 26 33.5C26.5523 33.5 27 33.0523 27 32.5L25 32.5ZM25 19.5L25 32.5L27 32.5L27 19.5L25 19.5Z" fill="#47A7FF"/>
<path d="M19.5 25C18.9477 25 18.5 25.4477 18.5 26C18.5 26.5523 18.9477 27 19.5 27V25ZM32.5 27C33.0523 27 33.5 26.5523 33.5 26C33.5 25.4477 33.0523 25 32.5 25V27ZM19.5 27H32.5V25H19.5V27Z" fill="#47A7FF"/>
</svg>
