<svg width="132" height="132" viewBox="0 0 132 132" fill="none" xmlns="http://www.w3.org/2000/svg">
<g opacity="0.6">
<path d="M66 132C99.4892 132 126.638 104.852 126.638 71.3625C126.638 37.8733 99.4892 10.725 66 10.725C32.5108 10.725 5.3625 37.8733 5.3625 71.3625C5.3625 104.852 32.5108 132 66 132Z" fill="#37EC7F"/>
<path d="M123.75 123.544L114.675 69.5062C114.262 66.825 111.787 64.7625 109.106 64.7625H23.1C20.4187 64.7625 17.9437 66.825 17.5312 69.5062L8.24999 123.544C7.63124 127.05 10.3125 130.144 13.8187 130.144H117.975C121.687 130.144 124.369 126.844 123.75 123.544Z" fill="white"/>
<path d="M16.0875 122.513L24.5438 72.1875H107.456L115.913 122.513H16.0875Z" fill="#F2F2F2"/>
<path d="M66 1.85623C83.7375 1.85623 98.175 16.2937 98.175 34.0312C98.175 51.7687 72.1875 69.9187 66 88.0687C59.8125 69.9187 33.825 51.7687 33.825 34.0312C33.825 16.2937 48.2625 1.85623 66 1.85623Z" fill="white"/>
<path d="M125.338 123.131L116.263 69.0938C115.644 65.3812 112.55 62.7 108.838 62.7H85.1192C92.7505 53.4188 99.7629 43.725 99.7629 34.0312C99.7629 15.2625 84.5004 0 65.7317 0C46.9629 0 31.7004 15.2625 31.7004 34.0312C31.7004 43.725 38.7129 53.4188 46.3442 62.7H22.8317C19.1192 62.7 16.0254 65.3812 15.4067 69.0938L6.12545 123.131C5.71295 125.4 6.3317 127.669 7.77545 129.319C9.2192 130.969 11.488 132 13.5505 132H117.707C119.975 132 122.038 130.969 123.482 129.319C125.132 127.669 125.75 125.4 125.338 123.131ZM65.7317 3.7125C82.4379 3.7125 96.0504 17.325 96.0504 34.0312C96.0504 43.3125 87.8004 53.4188 79.963 63.1125C74.6004 69.7125 69.2379 76.3125 65.9379 83.1188C62.6379 76.3125 57.0692 69.7125 51.9129 63.1125C43.8692 53.4188 35.8254 43.3125 35.8254 34.0312C35.4129 17.325 49.0254 3.7125 65.7317 3.7125ZM120.8 126.844C119.975 127.669 118.944 128.288 117.913 128.288H13.5505C12.5192 128.288 11.2817 127.875 10.663 126.844C9.83795 126.019 9.6317 124.781 9.83795 123.75L18.913 69.7125C19.3254 67.8562 20.7692 66.6188 22.6255 66.6188H49.2317C55.2129 74.0437 61.1942 81.4688 63.6692 88.8937C63.8754 89.7188 64.7004 90.1312 65.5254 90.1312C66.3504 90.1312 66.9692 89.5125 67.3817 88.8937C69.8567 81.675 75.8379 74.0437 81.8192 66.6188H108.425C110.282 66.6188 111.932 67.8562 112.138 69.7125L121.625 123.75C121.832 124.781 121.419 126.019 120.8 126.844Z" fill="#515151"/>
<path d="M66 50.7375C75.3405 50.7375 82.9125 43.1655 82.9125 33.825C82.9125 24.4845 75.3405 16.9125 66 16.9125C56.6595 16.9125 49.0875 24.4845 49.0875 33.825C49.0875 43.1655 56.6595 50.7375 66 50.7375Z" fill="#FFCC40"/>
<path d="M79.4062 95.4937V122.512H83.1188V99.2062H111.994L111.375 95.4937H79.4062Z" fill="#193651"/>
<path d="M37.125 72.1875H33.2063V102.919H19.3875L18.7688 106.631H37.125V72.1875Z" fill="#193651"/>
<path d="M63.1125 111.994H59.4V115.706H63.1125V111.994Z" fill="#193651"/>
<path d="M52.8 111.994H49.0875V115.706H52.8V111.994Z" fill="#193651"/>
<path d="M42.6937 111.994H38.9812V115.706H42.6937V111.994Z" fill="#193651"/>
<path d="M103.538 83.7375H99.825V87.45H103.538V83.7375Z" fill="#193651"/>
<path d="M93.225 83.7375H89.5125V87.45H93.225V83.7375Z" fill="#193651"/>
<path d="M83.1188 83.7375H79.4062V87.45H83.1188V83.7375Z" fill="#193651"/>
</g>
</svg>
