<svg width="132" height="132" viewBox="0 0 132 132" fill="none" xmlns="http://www.w3.org/2000/svg">
<g opacity="0.6">
<path d="M66 132C102.451 132 132 102.451 132 66C132 29.5492 102.451 0 66 0C29.5492 0 0 29.5492 0 66C0 102.451 29.5492 132 66 132Z" fill="#E0E0E0"/>
<path d="M101.475 20.2125H2.0625V101.269H101.475V20.2125Z" fill="#FFCC40"/>
<path d="M101.475 20.2125H2.0625L16.7063 2.0625H86.8312L101.475 20.2125Z" fill="#FFCC40"/>
<path d="M58.3688 18.15H45.1688L47.4376 4.125H55.8938L58.3688 18.15Z" fill="#E1E6E9"/>
<path d="M58.3688 18.15H45.1688V34.2375H58.3688V18.15Z" fill="#E1E6E9"/>
<path d="M102.712 129.937C117.748 129.937 129.937 117.748 129.937 102.712C129.937 87.6765 117.748 75.4875 102.712 75.4875C87.6765 75.4875 75.4874 87.6765 75.4874 102.712C75.4874 117.748 87.6765 129.937 102.712 129.937Z" fill="white"/>
<path d="M103.537 73.6312V20.4187C103.537 19.5938 103.331 19.1812 102.919 18.5625L88.4813 0.61875C87.8625 0.20625 87.45 0 86.8312 0H16.7063C16.0875 0 15.4688 0.20625 15.0563 0.825L0.4125 18.975C0.20625 19.3875 0 19.8 0 20.2125C0 20.8313 0 100.856 0 101.475C0 102.713 0.825 103.537 2.0625 103.537H73.6312C74.0438 119.213 86.8312 132 102.713 132C118.8 132 132 118.8 132 102.713C132 86.8312 119.213 74.0438 103.537 73.6312ZM17.7375 4.125H85.8L97.1437 18.15H6.39375L17.7375 4.125ZM4.125 22.275H99.4125V73.6312C86.0062 75.2812 75.2812 85.8 73.8375 99.2062H4.125V22.275ZM102.713 127.875C88.8937 127.875 77.55 116.531 77.55 102.713C77.55 88.8937 88.8937 77.55 102.713 77.55C116.531 77.55 127.875 88.8937 127.875 102.713C127.875 116.531 116.531 127.875 102.713 127.875Z" fill="#515151"/>
<path d="M102.712 121.687C92.1937 121.687 83.7374 113.231 83.7374 102.712C83.7374 92.1937 92.1937 83.7375 102.712 83.7375C113.231 83.7375 121.687 92.1937 121.687 102.712C121.687 113.231 113.231 121.687 102.712 121.687Z" fill="#FF525C"/>
<path d="M39.5999 86.2125H45.9937V74.0438H49.2937L42.6937 66.4125L36.2999 74.0438H39.5999V86.2125Z" fill="white"/>
<path d="M49.9124 89.1H35.4749V91.7813H49.9124V89.1Z" fill="white"/>
<path d="M28.0499 89.1H13.6124V91.7813H28.0499V89.1Z" fill="white"/>
<path d="M17.5313 86.2125H24.1313V74.0438H27.225L20.8313 66.4125L14.4375 74.0438H17.5313V86.2125Z" fill="white"/>
<path d="M28.0499 48.675H23.9249V52.8H28.0499V48.675Z" fill="#515151"/>
<path d="M38.3624 48.675H34.2374V52.8H38.3624V48.675Z" fill="#515151"/>
<path d="M48.6749 48.675H44.5499V52.8H48.6749V48.675Z" fill="#515151"/>
<path d="M58.9874 48.675H54.8624V52.8H58.9874V48.675Z" fill="#515151"/>
<path d="M69.2999 48.675H65.1749V52.8H69.2999V48.675Z" fill="#515151"/>
<path d="M79.6124 48.675H75.4874V52.8H79.6124V48.675Z" fill="#515151"/>
<path d="M102.702 91C101.053 91 99.8164 92.4426 100.022 93.8852L101.259 108.518C101.259 109.342 102.083 109.96 102.908 109.96C103.732 109.96 104.35 109.342 104.556 108.518L105.793 93.8852C105.587 92.4426 104.35 91 102.702 91Z" fill="white"/>
<path d="M102.702 115.525C103.612 115.525 104.35 114.786 104.35 113.876C104.35 112.965 103.612 112.227 102.702 112.227C101.791 112.227 101.053 112.965 101.053 113.876C101.053 114.786 101.791 115.525 102.702 115.525Z" fill="white"/>
</g>
</svg>
