<svg width="102" height="49" viewBox="0 0 102 49" fill="none" xmlns="http://www.w3.org/2000/svg">
<path d="M9.59863 6.99854L50.5073 15.9294L91.4159 6.99854L50.5073 1.36536L9.59863 6.99854Z" fill="white"/>
<path d="M50.5181 17.2947C50.3586 17.2947 50.199 17.2947 50.199 17.2947L9.04654 8.23565C8.24897 8.09834 7.77051 7.54931 7.77051 6.86298C7.77051 6.17664 8.40853 5.62761 9.04654 5.62761L50.0397 0C50.1992 0 50.3588 0 50.5181 0L91.5113 5.62761C92.3088 5.76491 92.7873 6.31394 92.7873 6.86298C92.7873 7.54931 92.3088 8.09834 91.5113 8.23565L50.5181 17.1574C50.837 17.2947 50.6777 17.2947 50.5181 17.2947ZM17.3408 7.27488L50.5181 14.5496L83.6955 7.27488L50.5181 2.74533L17.3408 7.27488Z" fill="#515151"/>
<path d="M50.7358 46.8779L9.59863 37.8699V6.82687L50.7358 15.835V46.8779Z" fill="white"/>
<path d="M50.5123 48.2433C50.3528 48.2433 50.1932 48.2433 50.1932 48.2433L9.04637 39.2553C8.40844 39.117 7.77051 38.5639 7.77051 37.8725V6.89854C7.77051 6.48376 7.93004 6.0688 8.40844 5.79234C8.72751 5.5157 9.36544 5.37756 9.84384 5.5157L50.8314 14.5036C51.4693 14.6419 52.1072 15.195 52.1072 15.8865V46.8604C52.1072 47.2752 51.9477 47.6902 51.4693 47.9666C51.1502 48.2433 50.8312 48.2433 50.5123 48.2433ZM11.1197 36.7663L48.9176 45.2011V16.9928L11.1197 8.69617V36.7663Z" fill="#515151"/>
<path d="M15.9976 33.4627V14.1089L44.3365 20.2421V39.5959L15.9976 33.4627Z" fill="#FFCC40"/>
<path d="M50.7358 46.8779L91.4159 37.8699V6.82687L50.7358 15.835V46.8779Z" fill="white"/>
<path d="M50.5026 48.2431C50.1836 48.2431 49.8647 48.1048 49.5456 47.9666C49.2266 47.6902 48.9077 47.2752 48.9077 46.8604V15.8865C48.9077 15.1951 49.3861 14.642 50.1836 14.5037L91.1711 5.51578C91.6495 5.37746 92.1281 5.51578 92.6065 5.79242C92.9256 6.06906 93.2444 6.48384 93.2444 6.89862V37.8725C93.2444 38.5639 92.766 39.117 91.9686 39.2554L50.981 48.2433C50.8215 48.2431 50.6622 48.2431 50.5026 48.2431ZM52.0974 16.9927V45.2011L89.8953 36.9046V8.55809L52.0974 16.9927Z" fill="#515151"/>
<path d="M57.1348 20.2421L85.0166 14.1089V33.4627L57.1348 39.5959V20.2421Z" fill="#FFCC40"/>
<path d="M59.1756 25.0319L100.1 15.9295L91.6607 6.82687L50.7358 15.9295L59.1756 25.0319Z" fill="#E0E0E0"/>
<path d="M59.0118 26.3973C58.5336 26.3973 58.0553 26.258 57.7367 25.8404L49.2891 16.7908C48.9702 16.3732 48.8109 15.9554 48.9702 15.5378C49.1296 15.1202 49.6077 14.7024 50.0858 14.5633L91.049 5.51375C91.6865 5.37448 92.3241 5.51374 92.6429 5.93137L101.091 14.9809C101.409 15.3985 101.569 15.8163 101.409 16.2339C101.25 16.6516 100.772 17.0694 100.294 17.2085L59.3306 26.258C59.3306 26.3973 59.1712 26.3973 59.0118 26.3973ZM53.4332 16.7908L59.6495 23.4735L97.2654 15.1202L91.0492 8.43747L53.4332 16.7908Z" fill="#515151"/>
<path d="M42.296 25.0319L1.37109 15.9295L9.81081 6.82687L50.7357 15.9295L42.296 25.0319Z" fill="#E0E0E0"/>
<path d="M42.0906 26.3972C41.9326 26.3972 41.7745 26.3972 41.7745 26.3972L1.16796 17.4852C0.694009 17.348 0.219853 17.0739 0.0620046 16.5254C-0.0960475 16.1142 0.0620046 15.5657 0.378109 15.2914L8.75222 6.37934C9.06833 5.96806 9.70033 5.83091 10.3323 5.96806L50.9391 14.8801C51.4131 15.0173 51.8872 15.2914 52.0451 15.8399C52.2031 16.2511 52.0451 16.7996 51.729 17.0739L43.3548 25.986C43.0385 26.2603 42.5646 26.3972 42.0906 26.3972ZM4.32799 15.2914L41.6167 23.5179L47.7789 16.9367L10.49 8.71023L4.32799 15.2914Z" fill="#515151"/>
</svg>
