<svg width="132" height="132" viewBox="0 0 132 132" fill="none" xmlns="http://www.w3.org/2000/svg">
<g opacity="0.6">
<path d="M37.95 2.0625L2.0625 37.95V129.938H101.681V2.0625H37.95Z" fill="white"/>
<path d="M10.3125 121.688V41.4563L41.4563 10.3125H93.4313V121.688H10.3125Z" fill="#E0E0E0"/>
<path d="M2.0625 37.95H37.95V2.0625" fill="#FFCC40"/>
<path d="M118.181 35.2688C114.469 35.2688 111.169 36.9188 108.9 39.6C106.837 36.9188 103.331 35.2688 99.6186 35.2688C93.0186 35.2688 87.8623 40.6313 87.8623 47.025C87.8623 58.3688 108.9 72.8063 108.9 72.8063C108.9 72.8063 129.937 58.3688 129.937 47.025C129.937 40.6313 124.575 35.2688 118.181 35.2688Z" fill="white"/>
<path d="M101.681 77.1375C100.444 77.1375 99.6188 77.9625 99.6188 79.2V127.875H4.125V40.0125H37.95C39.1875 40.0125 40.0125 39.1875 40.0125 37.95V4.125H99.4125V25.575C99.4125 26.8125 100.238 27.6375 101.475 27.6375C102.713 27.6375 103.537 26.8125 103.537 25.575V2.0625C103.537 0.825 102.713 0 101.475 0H37.95C37.3312 0 36.9188 0.20625 36.5063 0.61875L0.61875 36.5063C0.20625 36.9188 0 37.5375 0 37.95V129.938C0 131.175 0.825 132 2.0625 132H101.681C102.919 132 103.744 131.175 103.744 129.938V79.2C103.744 78.1688 102.713 77.1375 101.681 77.1375ZM7.0125 35.8875L35.8875 7.0125V35.8875H7.0125Z" fill="#515151"/>
<path d="M81.8812 109.519H34.0312V113.644H81.8812V109.519Z" fill="#515151"/>
<path d="M25.5748 109.519H21.8623V113.644H25.5748V109.519Z" fill="#515151"/>
<path d="M81.8812 88.8938H34.0312V93.0188H81.8812V88.8938Z" fill="#515151"/>
<path d="M25.5748 88.8938H21.8623V93.0188H25.5748V88.8938Z" fill="#515151"/>
<path d="M81.8812 68.2688H34.0312V72.3938H81.8812V68.2688Z" fill="#515151"/>
<path d="M25.5748 68.2688H21.8623V72.3938H25.5748V68.2688Z" fill="#515151"/>
<path d="M81.8812 47.6438H34.0312V51.7688H81.8812V47.6438Z" fill="#515151"/>
<path d="M25.5748 47.6438H21.8623V51.7688H25.5748V47.6438Z" fill="#515151"/>
<path d="M81.8814 27.0188H65.3813V31.1438H81.8814V27.0188Z" fill="#515151"/>
<path d="M56.7188 27.0188H53.0063V31.1438H56.7188V27.0188Z" fill="#515151"/>
<path d="M118.181 33.2063C114.675 33.2063 111.581 34.4438 108.9 36.7125C106.425 34.4438 103.125 33.2063 99.6186 33.2063C91.9873 33.2063 85.7998 39.3938 85.7998 47.025C85.7998 59.4 106.837 74.0438 107.662 74.6625C108.075 74.8688 108.487 75.075 108.9 75.075C109.312 75.075 109.725 74.8688 110.137 74.6625C110.962 74.0438 132 59.4 132 47.025C132 39.3938 125.812 33.2063 118.181 33.2063ZM108.9 70.3313C102.712 65.7938 89.9248 54.8625 89.9248 47.025C89.9248 41.6625 94.2561 37.3313 99.6186 37.3313C102.506 37.3313 105.394 38.5688 107.25 41.0438C108.075 42.075 109.725 42.075 110.55 41.0438C112.406 38.775 115.087 37.3313 118.181 37.3313C123.544 37.3313 127.875 41.6625 127.875 47.025C127.875 55.0688 115.087 65.7938 108.9 70.3313Z" fill="#515151"/>
<path d="M113.025 45C111.375 45 109.725 45.825 108.694 47.0625C107.663 45.825 106.219 45 104.363 45C101.269 45 99 47.475 99 50.3625C99 55.725 108.694 62.325 108.694 62.325C108.694 62.325 118.388 55.725 118.388 50.3625C118.388 47.475 115.913 45 113.025 45Z" fill="#FF525C"/>
</g>
</svg>
