<svg width="132" height="132" viewBox="0 0 132 132" fill="none" xmlns="http://www.w3.org/2000/svg">
<g opacity="0.6">
<path d="M100.031 73.0125H2.0625V129.937H100.031V73.0125Z" fill="white"/>
<path d="M91.7214 81.2913H10.2527V125.429H91.7214V81.2913Z" fill="#37EC7F"/>
<path d="M91.3686 2.0625C70.1248 2.0625 53.0061 16.9125 53.0061 35.475C53.0061 53.8312 70.3311 68.8875 91.5749 68.8875C94.0499 68.8875 96.3186 68.6812 98.5873 68.2687L116.944 80.4375L118.387 59.4C125.606 53.4187 129.937 44.9625 129.937 35.475C129.937 16.9125 112.612 2.0625 91.3686 2.0625Z" fill="white"/>
<path d="M100.444 60.8437L97.35 61.2562C95.2875 61.6687 93.4312 61.6686 91.3687 61.6686C74.0437 61.6686 59.8125 49.9124 59.8125 35.2687C59.8125 20.6249 74.0437 8.86865 91.3687 8.86865C108.694 8.86865 122.925 20.6249 122.925 35.2687C122.925 42.2812 119.625 48.8811 113.85 53.8312L111.375 55.8937L109.931 65.7936L100.444 60.8437Z" fill="#FFCC40"/>
<path d="M2.0625 129.938L50.9438 101.475L100.031 129.938H2.0625Z" fill="white"/>
<path d="M50.9438 31.9688L2.0625 73.0125L50.9438 114.056L100.031 73.0125L50.9438 31.9688Z" fill="white"/>
<path d="M14.644 42.4875V83.7375L50.944 114.056L87.244 83.7375V42.4875H14.644Z" fill="#E0E0E0"/>
<path d="M91.3688 0C71.1562 0 54.2437 12.9938 51.3563 30.1125C50.7375 29.9062 50.1188 30.1125 49.5 30.525L37.7437 40.425H14.6438C13.4062 40.425 12.5813 41.25 12.5813 42.4875V61.6688L0.61875 71.5687L0.20625 72.1875C0 72.6 0 72.8063 0 73.0125V129.938C0 130.35 0.20625 130.969 0.4125 131.175C0.825 131.794 1.44375 132 2.0625 132H100.031C100.444 132 101.062 131.794 101.475 131.381C101.888 130.969 102.094 130.35 102.094 129.938V73.0125C102.094 73.0125 102.094 73.0125 102.094 72.8063L118.8 83.7375L120.45 60.0187C127.875 53.625 132 44.7563 132 35.475C132 15.8813 113.85 0 91.3688 0ZM50.9438 34.65L57.5438 40.2188H44.1375L50.9438 34.65ZM16.7063 44.55H85.1813V82.9125L50.9438 111.375L16.7063 82.7062V44.55ZM12.5813 66.825V79.2L5.15625 73.0125L12.5813 66.825ZM4.125 77.55L13.4062 85.3875L38.5688 106.425L4.125 126.431V77.55ZM9.69375 127.875L41.8687 109.106L49.7062 115.706C50.5312 116.325 51.5625 116.325 52.3875 115.706L60.225 109.106L92.1937 127.875H9.69375ZM97.9688 126.431L63.525 106.425L88.6875 85.1813L97.9688 77.3438V126.431ZM89.3063 79.2V66.825L96.7313 73.0125L89.3063 79.2ZM116.325 58.1625L115.088 76.5187L99 66C97.5563 66.2063 96.9375 66.4125 95.2875 66.4125L89.3063 61.4625V42.2812C89.3063 41.0438 88.4812 40.2188 87.2438 40.2188H64.1438L55.275 33C56.7188 16.9125 72.3938 4.125 91.575 4.125C111.581 4.125 127.875 18.15 127.875 35.475C127.875 44.55 123.544 52.1813 116.325 58.1625Z" fill="#515151"/>
<path d="M29.2874 79.4062H25.1624V83.5312H29.2874V79.4062Z" fill="#515151"/>
<path d="M64.9688 79.4062H60.8438V83.5312H64.9688V79.4062Z" fill="#515151"/>
<path d="M53.0061 79.4062H48.8811V83.5312H53.0061V79.4062Z" fill="#515151"/>
<path d="M41.25 79.4062H37.125V83.5312H41.25V79.4062Z" fill="#515151"/>
<path d="M76.9314 79.4062H72.8064V83.5312H76.9314V79.4062Z" fill="#515151"/>
<path d="M93.4314 24.75H89.3064V28.875H93.4314V24.75Z" fill="#515151"/>
<path d="M81.675 24.75H77.55V28.875H81.675V24.75Z" fill="#515151"/>
<path d="M105.394 24.75H101.269V28.875H105.394V24.75Z" fill="#515151"/>
<path d="M76.9311 53.2124H25.1624V57.3374H76.9311V53.2124Z" fill="#515151"/>
<path d="M76.9311 66.4126H25.1624V70.5376H76.9311V66.4126Z" fill="#515151"/>
</g>
</svg>
