<svg width="132" height="132" viewBox="0 0 132 132" fill="none" xmlns="http://www.w3.org/2000/svg">
<g opacity="0.6">
<path d="M66 132C102.451 132 132 102.451 132 66C132 29.5492 102.451 0 66 0C29.5492 0 0 29.5492 0 66C0 102.451 29.5492 132 66 132Z" fill="#E0E0E0"/>
<path d="M101.475 20.2125H2.0625V101.269H101.475V20.2125Z" fill="#FFCC40"/>
<path d="M101.475 20.2125H2.0625L16.7063 2.0625H86.8312L101.475 20.2125Z" fill="#FFCC40"/>
<path d="M58.3685 18.15H45.1685L47.4372 4.125H55.8935L58.3685 18.15Z" fill="#F2F2F2"/>
<path d="M58.3685 18.15H45.1685V34.2375H58.3685V18.15Z" fill="#F2F2F2"/>
<path d="M103.537 73.6312V20.4187C103.537 19.5938 103.331 19.1812 102.919 18.5625L88.4813 0.61875C87.8625 0.20625 87.45 0 86.8312 0H16.7063C16.0875 0 15.4688 0.20625 15.0563 0.825L0.4125 18.975C0.20625 19.3875 0 19.8 0 20.2125C0 20.8313 0 100.856 0 101.475C0 102.713 0.825 103.537 2.0625 103.537H73.6312C74.0438 119.213 86.8312 132 102.713 132C118.8 132 132 118.8 132 102.713C132 86.8312 119.213 74.0438 103.537 73.6312ZM17.7375 4.125H85.8L97.1437 18.15H6.39375L17.7375 4.125ZM4.125 22.275H99.4125V73.6312C86.0062 75.2812 75.2812 85.8 73.8375 99.2062H4.125V22.275ZM102.713 127.875C88.8937 127.875 77.55 116.531 77.55 102.713C77.55 88.8937 88.8937 77.55 102.713 77.55C116.531 77.55 127.875 88.8937 127.875 102.713C127.875 116.531 116.531 127.875 102.713 127.875Z" fill="#515151"/>
<path d="M39.6003 86.2125H45.994V74.0438H49.294L42.694 66.4125L36.3003 74.0438H39.6003V86.2125Z" fill="white"/>
<path d="M49.9131 89.1H35.4756V91.7813H49.9131V89.1Z" fill="white"/>
<path d="M28.0503 89.1H13.6128V91.7813H28.0503V89.1Z" fill="white"/>
<path d="M17.5313 86.2125H24.1313V74.0438H27.225L20.8313 66.4125L14.4375 74.0438H17.5313V86.2125Z" fill="white"/>
<path d="M28.0503 48.675H23.9253V52.8H28.0503V48.675Z" fill="#515151"/>
<path d="M38.3628 48.675H34.2378V52.8H38.3628V48.675Z" fill="#515151"/>
<path d="M48.6753 48.675H44.5503V52.8H48.6753V48.675Z" fill="#515151"/>
<path d="M58.9878 48.675H54.8628V52.8H58.9878V48.675Z" fill="#515151"/>
<path d="M69.3003 48.675H65.1753V52.8H69.3003V48.675Z" fill="#515151"/>
<path d="M79.6128 48.675H75.4878V52.8H79.6128V48.675Z" fill="#515151"/>
<path d="M126.579 81.2308C125.284 79.9351 123.211 79.9351 122.045 81.2308L118.676 84.5995L123.211 89.1344L126.579 85.7656C127.745 84.5995 127.745 82.5264 126.579 81.2308Z" fill="white"/>
<path d="M83.3039 81.2308C82.0082 79.9351 79.9351 79.9351 78.769 81.2308C77.6029 82.5264 77.4733 84.5995 78.769 85.7656L82.1378 89.1344L86.6726 84.5995L83.3039 81.2308Z" fill="white"/>
<path d="M102.609 77.3438C88.6161 77.3438 77.3438 88.6161 77.3438 102.609C77.3438 116.603 88.6161 127.875 102.609 127.875C116.603 127.875 127.875 116.603 127.875 102.609C127.875 88.6161 116.603 77.3438 102.609 77.3438Z" fill="#37EC7F"/>
<path d="M102.609 122.719C91.5234 122.719 82.5 113.695 82.5 102.609C82.5 91.5234 91.5234 82.5 102.609 82.5C113.695 82.5 122.719 91.5234 122.719 102.609C122.719 113.695 113.695 122.719 102.609 122.719Z" fill="white"/>
<path d="M109.088 91.7257H103.257L97.1674 102.998H101.184L96.1309 113.493L109.088 100.018H103.905L109.088 91.7257Z" fill="#515151"/>
<circle cx="102.609" cy="69.8672" r="5" stroke="#515151" stroke-width="2.89062"/>
</g>
</svg>
