<svg width="132" height="132" viewBox="0 0 132 132" fill="none" xmlns="http://www.w3.org/2000/svg">
<g opacity="0.6">
<path d="M107.869 129.938H24.1313C20.6251 129.938 17.9438 127.256 17.9438 123.75V8.25C17.9438 4.74375 20.6251 2.0625 24.1313 2.0625H107.663C111.169 2.0625 113.85 4.74375 113.85 8.25V123.75C114.056 127.256 111.169 129.938 107.869 129.938Z" fill="white"/>
<path d="M105.6 17.5312H26.1938V110.963H105.6V17.5312Z" fill="#37EC7F"/>
<path d="M103.537 23.1C88.8935 23.1 77.1372 34.8563 77.1372 49.5C77.1372 54.0375 78.3747 58.3688 80.231 62.0813L77.1372 75.9L90.956 72.8063C94.6685 74.8688 98.9997 75.9 103.537 75.9C118.181 75.6938 129.937 63.9375 129.937 49.5C129.937 34.8563 118.181 23.1 103.537 23.1Z" fill="#FFCC40"/>
<path d="M103.537 67.4438C100.443 67.4438 97.556 66.6188 94.8747 65.175L92.1935 63.9375L88.2747 64.7625L89.0997 60.8438L87.656 58.1625C86.2122 55.4813 85.3872 52.5938 85.3872 49.5C85.3872 39.6 93.431 31.35 103.537 31.35C113.643 31.35 121.687 39.3938 121.687 49.5C121.687 59.6063 113.643 67.4438 103.537 67.4438Z" fill="white"/>
<path d="M28.4625 46.8188C43.1063 46.8188 54.8625 58.575 54.8625 73.2188C54.8625 77.7563 53.625 82.0875 51.7687 85.8L54.8625 99.6188L41.0438 96.525C37.3312 98.5875 33 99.6188 28.4625 99.6188C13.8188 99.6188 2.0625 87.8625 2.0625 73.2188C2.0625 58.7813 13.8188 46.8188 28.4625 46.8188Z" fill="#FFCC40"/>
<path d="M28.4625 91.3688C18.5625 91.3688 10.3125 83.325 10.3125 73.2188C10.3125 63.3188 18.3562 55.0688 28.4625 55.0688C38.3625 55.0688 46.6125 63.1125 46.6125 73.2188C46.6125 76.3125 45.7875 79.2 44.3438 81.8813L42.9 84.5625L43.725 88.4813L39.8062 87.6563L37.125 89.1C34.4438 90.5438 31.35 91.3688 28.4625 91.3688Z" fill="white"/>
<path d="M42.0747 118.388H37.9497V122.513H42.0747V118.388Z" fill="#515151"/>
<path d="M94.0503 118.388H89.9253V122.513H94.0503V118.388Z" fill="#515151"/>
<path d="M77.1375 118.388H54.6562V122.513H77.1375V118.388Z" fill="#515151"/>
<path d="M74.869 8.04376H56.9253V12.1688H74.869V8.04376Z" fill="#515151"/>
<path d="M107.869 0H24.1313C19.5938 0 15.8812 3.7125 15.8812 8.25V47.85C6.6 52.3875 0 62.0812 0 73.2188C0 84.3562 6.6 94.05 15.8812 98.7938V123.75C15.8812 128.288 19.5938 132 24.1313 132H107.662C112.2 132 115.912 128.288 115.912 123.75V74.8688C125.4 70.3312 132 60.6375 132 49.5C132 38.3625 125.4 28.6688 116.119 23.925V8.25C116.119 3.7125 112.406 0 107.869 0ZM4.125 73.2188C4.125 59.8125 15.0563 48.8813 28.4625 48.8813C41.8688 48.8813 52.8 59.8125 52.8 73.2188C52.8 77.9625 51.5625 81.675 49.5 85.3875L52.1812 96.7313L40.8375 94.05L40.2188 94.4625C36.7125 96.3187 32.5875 97.35 28.6687 97.35C15.0562 97.5563 4.125 86.625 4.125 73.2188ZM111.994 123.75C111.994 126.019 110.137 127.875 107.869 127.875H24.1313C21.8625 127.875 20.0063 126.019 20.0063 123.75V100.444C22.6875 101.269 25.3687 101.681 28.2563 101.681C32.7938 101.681 37.125 100.65 41.0438 98.5875L57.3375 102.3L53.625 86.0062C55.6875 82.0875 56.7188 77.55 56.7188 73.2188C56.7188 57.5438 43.9312 44.7563 28.2563 44.7563C25.3687 44.7563 22.4812 45.1687 20.0063 45.9937V8.25C20.0063 5.98125 21.8625 4.125 24.1313 4.125H107.662C109.931 4.125 111.787 5.98125 111.787 8.25V22.275C109.106 21.45 106.425 21.0375 103.537 21.0375C87.8625 21.0375 75.075 33.825 75.075 49.5C75.075 54.0375 76.1063 58.3688 78.1688 62.2875L74.4562 78.5812L90.75 74.8688C94.6687 76.9313 99.2063 77.9625 103.537 77.9625C106.425 77.9625 109.312 77.55 111.787 76.725V123.75H111.994ZM127.875 49.5C127.875 62.9062 116.944 73.8375 103.537 73.8375C98.7938 73.8375 95.0812 72.6 91.3688 70.5375L80.025 73.2188L82.7062 61.875C80.6437 58.1625 79.4062 54.2438 79.4062 49.7062C79.4062 36.3 90.3375 25.3687 103.744 25.3687C116.944 25.1625 127.875 36.0938 127.875 49.5Z" fill="#515151"/>
<path d="M95.2876 47.4375H91.1626V51.5625H95.2876V47.4375Z" fill="#515151"/>
<path d="M105.6 47.4375H101.475V51.5625H105.6V47.4375Z" fill="#515151"/>
<path d="M116.119 47.4375H111.994V51.5625H116.119V47.4375Z" fill="#515151"/>
<path d="M20.0063 71.1562H15.8813V75.2812H20.0063V71.1562Z" fill="#515151"/>
<path d="M30.5249 71.1562H26.3999V75.2812H30.5249V71.1562Z" fill="#515151"/>
<path d="M40.8374 71.1562H36.7124V75.2812H40.8374V71.1562Z" fill="#515151"/>
</g>
</svg>
