<svg width="132" height="132" viewBox="0 0 132 132" fill="none" xmlns="http://www.w3.org/2000/svg">
<g opacity="0.6">
<path d="M66 132C102.451 132 132 102.451 132 66C132 29.5492 102.451 0 66 0C29.5492 0 0 29.5492 0 66C0 102.451 29.5492 132 66 132Z" fill="#37EC7F"/>
<path d="M103.537 52.1813C109.004 52.1813 113.437 47.7489 113.437 42.2813C113.437 36.8136 109.004 32.3813 103.537 32.3813C98.0691 32.3813 93.6367 36.8136 93.6367 42.2813C93.6367 47.7489 98.0691 52.1813 103.537 52.1813Z" fill="#E0E0E0"/>
<path d="M25.9869 52.1813C31.4545 52.1813 35.8869 47.7489 35.8869 42.2813C35.8869 36.8136 31.4545 32.3813 25.9869 32.3813C20.5193 32.3813 16.0869 36.8136 16.0869 42.2813C16.0869 47.7489 20.5193 52.1813 25.9869 52.1813Z" fill="#E0E0E0"/>
<path d="M64.7631 28.2563C36.7131 28.2563 13.8193 50.9438 13.8193 79.2C13.8193 107.25 36.7131 129.938 64.7631 129.938C92.8131 129.938 115.707 107.25 115.707 78.9938C115.707 50.9438 92.8131 28.2563 64.7631 28.2563Z" fill="#FFCC40"/>
<path d="M64.7631 121.687C41.2506 121.687 22.0693 102.506 22.0693 78.9937C22.0693 55.4812 41.2506 36.5063 64.7631 36.5063C88.2756 36.5063 107.457 55.6875 107.457 79.2C107.457 102.712 88.2756 121.687 64.7631 121.687Z" fill="white"/>
<path d="M64.7627 36.5063V79.2H107.456C107.456 55.4813 88.2752 36.5063 64.7627 36.5063Z" fill="#E0E0E0"/>
<path d="M100.856 81.0562C101.996 81.0562 102.919 80.1328 102.919 78.9937C102.919 77.8547 101.996 76.9312 100.856 76.9312C99.7174 76.9312 98.7939 77.8547 98.7939 78.9937C98.7939 80.1328 99.7174 81.0562 100.856 81.0562Z" fill="#515151"/>
<path d="M28.6689 81.0562C29.808 81.0562 30.7314 80.1328 30.7314 78.9937C30.7314 77.8547 29.808 76.9312 28.6689 76.9312C27.5299 76.9312 26.6064 77.8547 26.6064 78.9937C26.6064 80.1328 27.5299 81.0562 28.6689 81.0562Z" fill="#515151"/>
<path d="M96.124 63.0581C97.2631 63.0581 98.1865 62.1347 98.1865 60.9956C98.1865 59.8565 97.2631 58.9331 96.124 58.9331C94.9849 58.9331 94.0615 59.8565 94.0615 60.9956C94.0615 62.1347 94.9849 63.0581 96.124 63.0581Z" fill="#515151"/>
<path d="M33.4355 99.2241C34.5746 99.2241 35.498 98.3006 35.498 97.1616C35.498 96.0225 34.5746 95.0991 33.4355 95.0991C32.2965 95.0991 31.373 96.0225 31.373 97.1616C31.373 98.3006 32.2965 99.2241 33.4355 99.2241Z" fill="#515151"/>
<path d="M82.793 49.9607C83.9321 49.9607 84.8555 49.0373 84.8555 47.8982C84.8555 46.7591 83.9321 45.8357 82.793 45.8357C81.6539 45.8357 80.7305 46.7591 80.7305 47.8982C80.7305 49.0373 81.6539 49.9607 82.793 49.9607Z" fill="#515151"/>
<path d="M46.6562 112.465C47.7953 112.465 48.7188 111.541 48.7188 110.402C48.7188 109.263 47.7953 108.34 46.6562 108.34C45.5172 108.34 44.5938 109.263 44.5938 110.402C44.5938 111.541 45.5172 112.465 46.6562 112.465Z" fill="#515151"/>
<path d="M64.7627 44.9625C65.9018 44.9625 66.8252 44.0391 66.8252 42.9C66.8252 41.7609 65.9018 40.8375 64.7627 40.8375C63.6236 40.8375 62.7002 41.7609 62.7002 42.9C62.7002 44.0391 63.6236 44.9625 64.7627 44.9625Z" fill="#515151"/>
<path d="M64.7627 117.15C65.9018 117.15 66.8252 116.227 66.8252 115.087C66.8252 113.948 65.9018 113.025 64.7627 113.025C63.6236 113.025 62.7002 113.948 62.7002 115.087C62.7002 116.227 63.6236 117.15 64.7627 117.15Z" fill="#515151"/>
<path d="M46.6572 49.9357C47.7963 49.9357 48.7197 49.0123 48.7197 47.8732C48.7197 46.7341 47.7963 45.8107 46.6572 45.8107C45.5181 45.8107 44.5947 46.7341 44.5947 47.8732C44.5947 49.0123 45.5181 49.9357 46.6572 49.9357Z" fill="#515151"/>
<path d="M82.7246 112.45C83.8637 112.45 84.7871 111.526 84.7871 110.387C84.7871 109.248 83.8637 108.325 82.7246 108.325C81.5855 108.325 80.6621 109.248 80.6621 110.387C80.6621 111.526 81.5855 112.45 82.7246 112.45Z" fill="#515151"/>
<path d="M33.4844 63.1306C34.6235 63.1306 35.5469 62.2071 35.5469 61.0681C35.5469 59.929 34.6235 59.0056 33.4844 59.0056C32.3453 59.0056 31.4219 59.929 31.4219 61.0681C31.4219 62.2071 32.3453 63.1306 33.4844 63.1306Z" fill="#515151"/>
<path d="M96.0918 99.106C97.2309 99.106 98.1543 98.1826 98.1543 97.0435C98.1543 95.9044 97.2309 94.981 96.0918 94.981C94.9527 94.981 94.0293 95.9044 94.0293 97.0435C94.0293 98.1826 94.9527 99.106 96.0918 99.106Z" fill="#515151"/>
<path d="M94.4631 77.55H69.9193C69.3006 75.2813 67.2381 73.6313 64.7631 73.6313C61.6693 73.6313 59.1943 76.1063 59.1943 79.2C59.1943 82.2938 61.6693 84.7688 64.7631 84.7688C67.2381 84.7688 69.3006 83.1188 69.9193 80.85H94.4631C95.2881 80.85 96.1131 80.2313 96.1131 79.2C96.1131 78.1688 95.2881 77.55 94.4631 77.55Z" fill="#FF525C"/>
<path d="M73.2193 26.8125C75.4881 24.5438 76.7256 21.6562 76.7256 18.3562C76.7256 11.7562 71.3631 6.1875 64.5568 6.1875C57.9568 6.1875 52.3881 11.55 52.3881 18.3562C52.3881 21.6562 53.8318 24.75 55.8943 27.0188C31.1443 30.9375 11.7568 52.8 11.7568 78.9938C11.7568 108.281 35.4756 132 64.7631 132C94.0506 132 117.769 108.281 117.769 78.9938C117.769 52.8 98.3818 30.9375 73.2193 26.8125ZM64.7631 10.3125C69.0943 10.3125 72.8068 13.8187 72.8068 18.3562C72.8068 22.8937 69.3006 26.4 64.7631 26.4C60.2256 26.4 56.7193 22.8937 56.7193 18.3562C56.7193 13.8187 60.4318 10.3125 64.7631 10.3125ZM64.7631 127.875C37.7443 127.875 15.8818 106.012 15.8818 78.9938C15.8818 51.975 37.7443 30.1125 64.7631 30.1125C91.7818 30.1125 113.644 51.975 113.644 78.9938C113.644 106.012 91.5756 127.875 64.7631 127.875Z" fill="#515151"/>
</g>
</svg>
