<svg width="23" height="18" viewBox="0 0 23 18" fill="none" xmlns="http://www.w3.org/2000/svg">
<path d="M21.126 0.228902C21.4314 0.50636 21.4592 0.940535 21.2093 1.24649L21.126 1.33414L3.03248 17.7711C2.69652 18.0763 2.15182 18.0763 1.81586 17.7711C1.51044 17.4936 1.48267 17.0595 1.73256 16.7535L1.81586 16.6659L4.07789 14.6123C2.4505 13.2629 1.08576 11.4592 0.0697568 9.30901C-0.0235014 9.11165 -0.0232414 8.88812 0.0704755 8.69094C1.2468 6.21594 2.87971 4.19719 4.83889 2.79743C6.82201 1.37162 9.11117 0.609274 11.4705 0.609274C13.5985 0.609274 15.6641 1.23116 17.5139 2.40401L19.9094 0.228902C20.2453 -0.0763008 20.7901 -0.0763008 21.126 0.228902ZM20.701 5.25198C21.5336 6.25674 22.261 7.41019 22.8703 8.69C22.9644 8.88778 22.9645 9.11209 22.8705 9.30993C20.4878 14.3247 16.213 17.3906 11.4705 17.3906C10.3908 17.3906 9.32264 17.232 8.29381 16.9201C7.84312 16.7834 7.5997 16.3408 7.75011 15.9313C7.90053 15.5219 8.38781 15.3008 8.8385 15.4374C9.69224 15.6963 10.5766 15.8276 11.4705 15.8276C15.261 15.8276 18.7898 13.4327 20.9597 9.34918L21.1383 9.00146L21.0775 8.87777C20.6409 8.02418 20.1473 7.24125 19.6028 6.53733L19.3264 6.19199C19.0406 5.84715 19.1167 5.35717 19.4963 5.09759C19.8759 4.83801 20.4153 4.90714 20.701 5.25198ZM11.4705 2.17232C9.50931 2.17232 7.59336 2.81038 5.90459 4.02454C4.28745 5.17994 2.9014 6.84076 1.85485 8.89456L1.80132 9.00146L1.85335 9.10617C2.76295 10.9005 3.93504 12.3924 5.29537 13.5052L7.74731 11.2772C7.25228 10.6152 6.98093 9.83113 6.98093 9.00125C6.98093 6.74303 8.98564 4.92067 11.4705 4.92067C12.379 4.92067 13.2513 5.16889 13.9785 5.61648L16.2755 3.52983C14.7756 2.63702 13.1411 2.17232 11.4705 2.17232ZM15.0683 8.805L15.1846 8.81675C15.6522 8.89315 15.9631 9.29946 15.879 9.72427C15.5493 11.3894 14.1077 12.7016 12.2759 13.0037C11.8084 13.0808 11.3606 12.799 11.2758 12.3744C11.1909 11.9497 11.5011 11.5429 11.9686 11.4658C13.0938 11.2802 13.983 10.4709 14.1856 9.4476C14.2627 9.05819 14.6449 8.78841 15.0683 8.805ZM11.4705 6.48371C9.93614 6.48371 8.7015 7.60604 8.7015 9.00125C8.7015 9.40771 8.80555 9.79361 9.00066 10.1389L12.725 6.75581C12.3445 6.57968 11.9151 6.48371 11.4705 6.48371Z" fill="#515151"/>
</svg>
